<svg xmlns="http://www.w3.org/2000/svg" xmlns:xlink="http://www.w3.org/1999/xlink" width="500" zoomAndPan="magnify" viewBox="0 0 375 374.999991" height="500" preserveAspectRatio="xMidYMid meet" version="1.0"><defs><filter x="0%" y="0%" width="100%" height="100%" id="2a0faa475f"><feColorMatrix values="0 0 0 0 1 0 0 0 0 1 0 0 0 0 1 0 0 0 1 0" color-interpolation-filters="sRGB"/></filter><g/><clipPath id="5f20b344cf"><path d="M 66 94 L 283.855469 94 L 283.855469 237 L 66 237 Z M 66 94 " clip-rule="nonzero"/></clipPath><clipPath id="c3cb861179"><path d="M 65.605469 93 L 283.855469 93 L 283.855469 238 L 65.605469 238 Z M 65.605469 93 " clip-rule="nonzero"/></clipPath><clipPath id="1108bdc27d"><path d="M 66 94 L 283.855469 94 L 283.855469 237 L 66 237 Z M 66 94 " clip-rule="nonzero"/></clipPath><clipPath id="0fe8ed614b"><path d="M 67 95 L 283.855469 95 L 283.855469 237 L 67 237 Z M 67 95 " clip-rule="nonzero"/></clipPath><clipPath id="a7bd95a289"><path d="M 66 94 L 283.855469 94 L 283.855469 237 L 66 237 Z M 66 94 " clip-rule="nonzero"/></clipPath><clipPath id="52737862d7"><path d="M 221 90.09375 L 237 90.09375 L 237 109 L 221 109 Z M 221 90.09375 " clip-rule="nonzero"/></clipPath><clipPath id="8956906efe"><path d="M 221 90.09375 L 238 90.09375 L 238 109 L 221 109 Z M 221 90.09375 " clip-rule="nonzero"/></clipPath><clipPath id="3b5a385ff0"><path d="M 95 225 L 120 225 L 120 243.84375 L 95 243.84375 Z M 95 225 " clip-rule="nonzero"/></clipPath><mask id="c939ea6a4c"><g filter="url(#2a0faa475f)"><rect x="-37.5" width="450" fill="#000000" y="-37.499999" height="449.999989" fill-opacity="0.6392"/></g></mask><clipPath id="34984c50f1"><rect x="0" width="26" y="0" height="19"/></clipPath></defs><g clip-path="url(#5f20b344cf)"><path fill="#000000" d="M 67.136719 134.644531 L 67.992188 137.742188 L 68.835938 140.785156 L 69.6875 143.84375 L 70.542969 146.914062 L 71.40625 149.996094 L 72.273438 153.089844 L 73.148438 156.191406 L 74.023438 159.300781 L 74.902344 162.421875 L 75.785156 165.546875 L 76.671875 168.679688 L 77.558594 171.816406 L 78.449219 174.953125 L 79.339844 178.097656 L 80.234375 181.242188 L 81.125 184.390625 L 82.019531 187.535156 L 82.910156 190.679688 L 84.691406 196.960938 L 85.578125 200.097656 L 86.464844 203.226562 L 87.347656 206.351562 L 88.226562 209.472656 L 89.105469 212.582031 L 89.976562 215.683594 L 90.84375 218.773438 L 91.703125 221.855469 L 92.5625 224.921875 L 93.410156 227.980469 L 94.253906 231.023438 L 95.101562 234.085938 L 95.203125 234.371094 L 95.355469 234.671875 L 95.546875 234.945312 L 95.761719 235.195312 L 96.003906 235.421875 L 96.265625 235.625 L 96.546875 235.8125 L 96.847656 235.976562 L 97.160156 236.128906 L 97.492188 236.265625 L 97.84375 236.390625 L 98.207031 236.5 L 98.585938 236.597656 L 98.984375 236.679688 L 99.394531 236.753906 L 99.820312 236.816406 L 100.257812 236.863281 L 100.710938 236.898438 L 101.179688 236.925781 L 101.65625 236.9375 L 102.148438 236.9375 L 102.652344 236.929688 L 103.164062 236.902344 L 103.6875 236.863281 L 104.222656 236.8125 L 104.761719 236.75 L 105.3125 236.671875 L 105.871094 236.582031 L 106.4375 236.472656 L 107.007812 236.351562 L 107.582031 236.21875 L 108.109375 236.085938 L 113.398438 235.21875 L 118.71875 234.328125 L 124.023438 233.421875 L 129.3125 232.503906 L 134.59375 231.570312 L 139.863281 230.621094 L 145.125 229.667969 L 150.375 228.699219 L 155.617188 227.726562 L 160.851562 226.742188 L 166.082031 225.753906 L 171.304688 224.757812 L 176.523438 223.761719 L 181.742188 222.757812 L 186.957031 221.753906 L 192.171875 220.746094 L 197.382812 219.742188 L 207.8125 217.734375 L 213.03125 216.734375 L 218.253906 215.742188 L 223.480469 214.75 L 228.710938 213.769531 L 233.953125 212.796875 L 239.199219 211.828125 L 244.453125 210.875 L 249.71875 209.929688 L 254.992188 209 L 260.277344 208.078125 L 265.578125 207.175781 L 270.890625 206.285156 L 276.300781 205.398438 L 276.722656 205.253906 L 277.097656 205.097656 L 277.472656 204.914062 L 277.847656 204.699219 L 278.21875 204.457031 L 278.585938 204.1875 L 278.949219 203.890625 L 279.308594 203.566406 L 279.660156 203.21875 L 280.003906 202.839844 L 280.34375 202.429688 L 280.671875 201.996094 L 280.988281 201.53125 L 281.296875 201.042969 L 281.59375 200.523438 L 281.875 199.976562 L 282.144531 199.398438 L 282.394531 198.796875 L 282.628906 198.164062 L 282.851562 197.503906 L 283.050781 196.8125 L 283.230469 196.09375 L 283.386719 195.347656 L 283.527344 194.570312 L 283.640625 193.765625 L 283.730469 192.929688 L 283.792969 192.0625 L 283.835938 191.167969 L 283.84375 190.246094 L 283.828125 189.289062 L 283.78125 188.304688 L 283.691406 187.101562 L 235.882812 94.304688 L 72.710938 119.550781 L 72.007812 119.691406 L 71.355469 119.855469 L 70.742188 120.039062 L 70.171875 120.25 L 69.640625 120.488281 L 69.148438 120.753906 L 68.691406 121.046875 L 68.277344 121.367188 L 67.902344 121.71875 L 67.566406 122.097656 L 67.273438 122.5 L 67.019531 122.925781 L 66.808594 123.371094 L 66.636719 123.832031 L 66.5 124.308594 L 66.398438 124.796875 L 66.324219 125.300781 L 66.277344 125.8125 L 66.253906 126.339844 L 66.25 126.878906 L 66.269531 127.433594 L 66.300781 128 L 66.347656 128.582031 L 66.40625 129.183594 L 66.480469 129.796875 L 66.558594 130.425781 L 66.644531 131.074219 L 66.738281 131.738281 L 66.832031 132.421875 L 66.933594 133.121094 L 67.03125 133.839844 L 67.136719 134.648438 Z M 67.136719 134.644531 " fill-opacity="1" fill-rule="nonzero"/></g><g clip-path="url(#c3cb861179)"><path stroke-linecap="butt" transform="matrix(0.25514, -0.000000000000000004, 0.000000000000000004, 0.255696, 58.130002, 80.658729)" fill="none" stroke-linejoin="miter" d="M 35.301119 211.132774 L 38.654062 223.24738 L 41.961074 235.14811 L 45.298706 247.109947 L 48.651649 259.117615 L 52.035212 271.171114 L 55.434085 283.270444 L 58.863579 295.400327 L 62.293073 307.560765 L 65.737877 319.767033 L 69.197992 331.988578 L 72.673416 344.240677 L 76.148841 356.508053 L 79.639576 368.775429 L 83.130311 381.073359 L 86.636356 393.371289 L 90.127091 405.684495 L 93.633136 417.982425 L 97.123871 430.280355 L 104.10534 454.845661 L 107.580765 467.113037 L 111.05619 479.349859 L 114.516304 491.571404 L 117.961108 503.777672 L 121.405912 515.938109 L 124.820096 528.067993 L 128.218969 540.152046 L 131.587222 552.205545 L 134.955475 564.197936 L 138.277797 576.159773 L 141.584809 588.060503 L 144.907132 600.037617 L 145.305198 601.152833 L 145.902297 602.329157 L 146.652499 603.398542 L 147.494562 604.376265 L 148.443797 605.262327 L 149.469583 606.056728 L 150.571921 606.790021 L 151.750809 607.431652 L 152.975628 608.027452 L 154.276999 608.562145 L 155.65492 609.051006 L 157.078773 609.47876 L 158.563866 609.860684 L 160.125511 610.181499 L 161.733086 610.471761 L 163.401902 610.716192 L 165.116649 610.899515 L 166.892637 611.037007 L 168.729866 611.143946 L 170.597715 611.189777 L 172.526806 611.189777 L 174.501827 611.159223 L 176.507468 611.052284 L 178.55904 610.899515 L 180.656543 610.700915 L 182.769357 610.456484 L 184.9281 610.150945 L 187.117465 609.799576 L 189.33745 609.371822 L 191.572745 608.898237 L 193.82335 608.378821 L 195.890233 607.859406 L 216.620299 604.467927 L 237.472846 600.984787 L 258.264153 597.440538 L 278.994219 593.85046 L 299.693664 590.199273 L 320.347179 586.486979 L 340.970073 582.759407 L 361.547036 578.970728 L 382.093379 575.166772 L 402.609101 571.316986 L 423.109514 567.451922 L 443.579305 563.556305 L 464.033787 559.660687 L 484.488268 555.734516 L 504.927439 551.808344 L 525.366611 547.866896 L 545.790472 543.940725 L 586.668814 536.088382 L 607.123295 532.177487 L 627.593087 528.297147 L 648.078189 524.416806 L 668.578601 520.582297 L 689.124944 516.778341 L 709.686597 512.989662 L 730.278871 509.26209 L 750.917075 505.565073 L 771.5859 501.929163 L 792.300656 498.323807 L 813.076652 494.794836 L 833.898579 491.311696 L 855.103263 487.843832 L 856.756769 487.278586 L 858.226552 486.667509 L 859.696335 485.949493 L 861.166118 485.109262 L 862.620591 484.162092 L 864.059753 483.107984 L 865.483606 481.946937 L 866.892148 480.678952 L 868.270069 479.319305 L 869.617371 477.837442 L 870.949362 476.233365 L 872.235422 474.537625 L 873.475551 472.71967 L 874.68506 470.810054 L 875.848639 468.778222 L 876.950976 466.639452 L 878.007382 464.378466 L 878.987238 462.025818 L 879.905852 459.550955 L 880.778536 456.969154 L 881.559358 454.265137 L 882.263629 451.454182 L 882.876039 448.536288 L 883.427208 445.496179 L 883.871205 442.349131 L 884.22334 439.079867 L 884.468304 435.688389 L 884.636717 432.189971 L 884.667337 428.584615 L 884.606096 424.841767 L 884.422373 420.991981 L 884.070238 416.286686 L 696.688203 53.367903 L 57.148832 152.102711 L 54.392989 152.65268 L 51.836179 153.294311 L 49.432471 154.012327 L 47.197176 154.837281 L 45.114983 155.769174 L 43.185893 156.808006 L 41.394595 157.953775 L 39.771709 159.206484 L 38.301926 160.581408 L 36.985245 162.06327 L 35.836977 163.636794 L 34.841812 165.301979 L 34.015059 167.04355 L 33.341408 168.846227 L 32.80555 170.710013 L 32.407484 172.61963 L 32.116589 174.590354 L 31.932866 176.591632 L 31.841005 178.654017 L 31.825694 180.762234 L 31.902246 182.931558 L 32.024728 185.146713 L 32.20845 187.422976 L 32.438104 189.775624 L 32.728999 192.174102 L 33.035203 194.633688 L 33.372029 197.169658 L 33.739474 199.766737 L 34.10692 202.4402 L 34.504987 205.17477 L 34.887743 207.985726 L 35.301119 211.148051 Z M 35.301119 211.132774 " stroke="#000000" stroke-width="0.216" stroke-opacity="1" stroke-miterlimit="4"/></g><g clip-path="url(#1108bdc27d)"><path stroke-linecap="butt" transform="matrix(0.25514, -0.000000000000000004, 0.000000000000000004, 0.255696, 58.130002, 80.658729)" fill-opacity="1" fill="#000000" fill-rule="nonzero" stroke-linejoin="miter" d="M 36.280974 210.934174 L 39.603297 222.987672 L 42.925619 234.888402 L 46.247941 246.850239 L 49.616194 258.857907 L 52.984447 270.911406 L 56.38332 282.995459 L 59.812814 295.125343 L 63.242308 307.301057 L 66.687112 319.492048 L 70.147227 331.713593 L 73.622651 343.965692 L 77.098076 356.233068 L 84.079546 380.798374 L 87.585591 393.096304 L 91.076326 405.409511 L 94.582371 417.70744 L 101.56384 442.3033 L 108.54531 466.838052 L 112.005424 479.074874 L 115.465539 491.296419 L 118.910343 503.502687 L 122.355147 515.663125 L 125.769331 527.793008 L 129.168204 539.877061 L 132.536457 551.93056 L 135.90471 563.938228 L 139.227032 575.884788 L 142.534044 587.785518 L 145.841056 599.732078 L 146.208502 600.755633 L 146.759671 601.825018 L 147.433321 602.787464 L 148.214143 603.688803 L 149.086827 604.513758 L 150.051372 605.24705 L 151.077158 605.934512 L 152.194806 606.54559 L 153.373695 607.126113 L 154.629134 607.630252 L 155.961125 608.103837 L 157.339047 608.516314 L 158.79352 608.898237 L 160.309234 609.219053 L 161.886188 609.494037 L 163.524384 609.738468 L 165.208511 609.921791 L 166.969188 610.059284 L 168.760486 610.150945 L 170.613026 610.196776 L 172.511495 610.212053 L 174.455896 610.166222 L 176.446227 610.059284 L 178.482489 609.921791 L 180.549372 609.723191 L 182.646875 609.47876 L 184.774998 609.173222 L 186.949052 608.821852 L 189.138417 608.409375 L 191.358402 607.93579 L 193.593697 607.416375 L 195.6912 606.881682 L 216.467196 603.490203 L 237.304434 600.007063 L 258.09574 596.462815 L 278.825806 592.872736 L 299.525251 589.221549 L 320.178766 585.524532 L 340.78635 581.781684 L 361.363313 578.008282 L 381.909656 574.189049 L 402.425379 570.354539 L 422.925791 566.489475 L 443.395582 562.593858 L 463.850064 558.682963 L 484.304545 554.756792 L 504.743717 550.830621 L 525.167577 546.904449 L 545.606749 542.963001 L 566.04592 539.03683 L 586.485091 535.125935 L 606.939573 531.215041 L 627.409364 527.319423 L 647.894466 523.45436 L 668.394878 519.604573 L 688.941221 515.800617 L 709.502874 512.027215 L 730.095148 508.299644 L 750.748663 504.587349 L 771.417487 500.936163 L 792.147553 497.346084 L 812.908239 493.817113 L 833.730167 490.333972 L 854.858299 486.881386 L 856.404633 486.346693 L 857.828485 485.76617 L 859.237028 485.063431 L 860.64557 484.269031 L 862.054112 483.337138 L 863.447344 482.32886 L 864.840576 481.198367 L 866.218497 479.976213 L 867.550488 478.631843 L 868.882479 477.180534 L 870.168539 475.622287 L 871.439289 473.957102 L 872.664109 472.184978 L 873.842997 470.305915 L 874.975955 468.304637 L 876.062982 466.196421 L 877.104078 463.996543 L 878.068623 461.659172 L 878.987238 459.214863 L 879.829301 456.678892 L 880.594813 454.005429 L 881.299084 451.240305 L 881.911494 448.337688 L 882.447352 445.343409 L 882.891349 442.226915 L 883.243485 438.988206 L 883.488449 435.627281 L 883.641551 432.174694 L 883.687482 428.584615 L 883.626241 424.872321 L 883.442518 421.053088 L 883.105693 416.56167 L 696.137034 54.452565 L 57.317245 153.080434 L 54.607332 153.615127 L 52.096453 154.241481 L 49.753986 154.959497 L 47.564622 155.753897 L 45.54367 156.655236 L 43.675821 157.663514 L 41.961074 158.763453 L 40.399429 159.97033 L 39.006197 161.268869 L 37.750758 162.689624 L 36.64842 164.186763 L 35.714496 165.775564 L 34.933673 167.425473 L 34.275333 169.167043 L 33.770095 170.954444 L 33.372029 172.802953 L 33.096444 174.697292 L 32.912721 176.668016 L 32.82086 178.684571 L 32.82086 180.746957 L 32.882101 182.885727 L 33.004583 185.085606 L 33.188306 187.346591 L 33.417959 189.668685 L 33.693544 192.051886 L 34.015059 194.511472 L 34.351884 197.032166 L 34.70402 199.629244 L 35.086776 202.302707 L 35.469532 205.037278 L 35.852288 207.848233 L 36.265664 210.94945 Z M 36.280974 210.934174 " stroke="#000000" stroke-width="0.216" stroke-opacity="1" stroke-miterlimit="4"/><path stroke-linecap="butt" transform="matrix(0.25514, -0.000000000000000004, 0.000000000000000004, 0.255696, 58.130002, 80.658729)" fill-opacity="1" fill="#000000" fill-rule="nonzero" stroke-linejoin="miter" d="M 37.24552 210.735573 L 40.567842 222.712688 L 43.874854 234.613417 L 47.197176 246.575255 L 50.565429 258.582923 L 53.933682 270.636422 L 57.332555 282.735751 L 60.762049 294.865635 L 64.191543 307.026072 L 67.636347 319.217063 L 71.096462 331.453886 L 74.571886 343.690708 L 78.047311 355.958084 L 85.028781 380.523389 L 88.534826 392.836596 L 92.02556 405.134526 L 95.531606 417.432456 L 102.513075 442.028315 L 106.00381 454.310968 L 109.494545 466.563067 L 112.954659 478.815166 L 116.414774 491.036711 L 119.859578 503.227702 L 123.304382 515.403417 L 126.718566 527.5333 L 130.117439 539.617353 L 133.501002 551.670852 L 136.853945 563.663243 L 140.176267 575.62508 L 143.498589 587.52581 L 146.790291 599.42654 L 147.127116 600.373709 L 147.601734 601.305602 L 148.214143 602.191664 L 148.918415 603.001342 L 149.729857 603.749911 L 150.617851 604.45265 L 151.597707 605.094281 L 152.654113 605.674805 L 153.787071 606.209497 L 154.98127 606.713636 L 156.26733 607.156667 L 157.614631 607.553867 L 159.023173 607.920513 L 160.508267 608.241329 L 162.039291 608.516314 L 163.646866 608.745468 L 165.315682 608.928791 L 167.030429 609.066283 L 168.806417 609.173222 L 170.628336 609.219053 L 172.511495 609.219053 L 174.425275 609.173222 L 176.384986 609.08156 L 178.390628 608.928791 L 180.4422 608.745468 L 182.524393 608.48576 L 184.637206 608.195498 L 186.78064 607.844129 L 188.939384 607.446929 L 191.144058 606.973344 L 193.364043 606.453928 L 195.492166 605.903958 L 216.298783 602.51248 L 237.136021 599.029339 L 257.927328 595.485091 L 278.657393 591.895012 L 299.356839 588.243826 L 319.995043 584.546808 L 340.602627 580.80396 L 361.17959 577.030558 L 381.725933 573.226602 L 402.241656 569.376815 L 422.742068 565.511752 L 443.21186 561.616134 L 484.120822 553.794345 L 504.544683 549.852897 L 524.983855 545.926726 L 545.423026 541.985277 L 565.862197 538.059106 L 586.301368 534.148212 L 606.75585 530.237317 L 627.225641 526.356977 L 647.710743 522.476636 L 668.226466 518.642126 L 688.757498 514.822893 L 709.334462 511.049491 L 729.926735 507.306643 L 750.56494 503.624903 L 771.249075 499.973716 L 791.979141 496.383637 L 812.739827 492.839389 L 833.577064 489.356249 L 854.628645 485.918939 L 856.067808 485.430077 L 857.415109 484.864831 L 858.77772 484.192646 L 860.140332 483.413522 L 861.502943 482.52746 L 862.850244 481.53446 L 864.197545 480.449798 L 865.529536 479.24292 L 866.846217 477.944381 L 868.132277 476.523626 L 869.403027 475.01121 L 870.627847 473.376578 L 871.837356 471.635008 L 872.985624 469.7865 L 874.118581 467.831052 L 875.174988 465.75339 L 876.185464 463.584065 L 877.150009 461.292526 L 878.053313 458.894047 L 878.880066 456.373354 L 879.645578 453.745722 L 880.334539 451.011151 L 880.946949 448.154365 L 881.467497 445.175363 L 881.911494 442.089423 L 882.248319 438.896544 L 882.508593 435.58145 L 882.646385 432.144141 L 882.707626 428.584615 L 882.631075 424.902875 L 882.447352 421.114196 L 882.125837 416.836655 L 695.585866 55.537227 L 57.485658 154.042881 L 54.836986 154.577574 L 52.356727 155.188651 L 50.075501 155.89139 L 47.947378 156.670513 L 45.987667 157.541298 L 44.181059 158.503745 L 42.542863 159.557853 L 41.057769 160.7189 L 39.710468 161.956331 L 38.53158 163.300701 L 37.490483 164.721456 L 36.602489 166.233872 L 35.852288 167.822673 L 35.224568 169.472582 L 34.73464 171.183598 L 34.351884 172.970999 L 34.09161 174.819508 L 33.907887 176.729124 L 33.816026 178.699848 L 33.816026 180.746957 L 33.877267 182.839897 L 33.999749 185.009221 L 34.183471 187.25493 L 34.413125 189.561746 L 34.688709 191.929671 L 34.994914 194.37398 L 35.33174 196.894674 L 35.699185 199.491752 L 36.066631 202.165215 L 36.464697 204.899786 L 36.847453 207.710741 L 37.24552 210.75085 Z M 37.24552 210.735573 " stroke="#000000" stroke-width="0.216" stroke-opacity="1" stroke-miterlimit="4"/></g><g clip-path="url(#0fe8ed614b)"><path fill="#000000" d="M 67.878906 134.492188 L 68.722656 137.539062 L 69.566406 140.582031 L 70.417969 143.640625 L 71.273438 146.707031 L 72.136719 149.789062 L 73.003906 152.882812 L 73.875 155.984375 L 74.75 159.09375 L 75.628906 162.214844 L 76.511719 165.339844 L 77.398438 168.46875 L 78.285156 171.605469 L 79.175781 174.746094 L 80.066406 177.890625 L 80.960938 181.035156 L 81.851562 184.179688 L 82.746094 187.324219 L 83.636719 190.46875 L 84.53125 193.613281 L 85.417969 196.753906 L 86.308594 199.890625 L 87.191406 203.023438 L 88.074219 206.144531 L 88.957031 209.261719 L 89.832031 212.375 L 90.703125 215.476562 L 91.570312 218.566406 L 92.433594 221.648438 L 93.289062 224.71875 L 94.140625 227.777344 L 94.984375 230.816406 L 95.824219 233.855469 L 95.898438 234.066406 L 96.007812 234.28125 L 96.144531 234.480469 L 96.308594 234.667969 L 96.496094 234.84375 L 96.707031 235.007812 L 96.9375 235.160156 L 97.191406 235.304688 L 97.46875 235.433594 L 97.761719 235.554688 L 98.078125 235.667969 L 98.410156 235.765625 L 98.761719 235.855469 L 99.128906 235.933594 L 99.515625 236.003906 L 99.914062 236.0625 L 100.332031 236.109375 L 100.761719 236.144531 L 101.207031 236.167969 L 101.667969 236.179688 L 102.140625 236.179688 L 102.625 236.167969 L 103.117188 236.144531 L 103.625 236.109375 L 104.140625 236.058594 L 104.664062 235.996094 L 105.199219 235.921875 L 105.742188 235.832031 L 106.289062 235.730469 L 106.84375 235.613281 L 107.402344 235.480469 L 107.957031 235.339844 L 113.277344 234.46875 L 118.589844 233.578125 L 123.894531 232.675781 L 129.183594 231.753906 L 134.460938 230.820312 L 139.730469 229.878906 L 144.988281 228.921875 L 150.234375 227.953125 L 155.476562 226.980469 L 160.710938 225.996094 L 165.941406 225.007812 L 171.164062 224.015625 L 176.382812 223.015625 L 192.027344 220.003906 L 202.457031 217.988281 L 207.671875 216.988281 L 212.890625 215.992188 L 218.113281 214.996094 L 223.339844 214.007812 L 228.574219 213.023438 L 233.816406 212.050781 L 239.0625 211.082031 L 244.320312 210.128906 L 249.585938 209.183594 L 254.859375 208.25 L 260.148438 207.328125 L 265.453125 206.425781 L 270.765625 205.535156 L 276.117188 204.660156 L 276.457031 204.542969 L 276.785156 204.40625 L 277.121094 204.242188 L 277.453125 204.050781 L 277.789062 203.832031 L 278.125 203.585938 L 278.457031 203.316406 L 278.789062 203.015625 L 279.113281 202.691406 L 279.4375 202.339844 L 279.75 201.957031 L 280.058594 201.550781 L 280.359375 201.113281 L 280.648438 200.652344 L 280.929688 200.160156 L 281.195312 199.640625 L 281.453125 199.09375 L 281.691406 198.515625 L 281.917969 197.910156 L 282.128906 197.277344 L 282.320312 196.613281 L 282.492188 195.921875 L 282.644531 195.199219 L 282.777344 194.449219 L 282.890625 193.667969 L 282.976562 192.859375 L 283.042969 192.019531 L 283.078125 191.148438 L 283.089844 190.246094 L 283.070312 189.3125 L 283.027344 188.351562 L 282.949219 187.3125 L 235.460938 95.136719 L 72.84375 120.296875 L 72.175781 120.429688 L 71.554688 120.582031 L 70.984375 120.757812 L 70.457031 120.953125 L 69.972656 121.167969 L 69.53125 121.40625 L 69.128906 121.664062 L 68.765625 121.945312 L 68.441406 122.25 L 68.15625 122.570312 L 67.90625 122.917969 L 67.691406 123.28125 L 67.507812 123.667969 L 67.355469 124.070312 L 67.234375 124.492188 L 67.144531 124.929688 L 67.074219 125.390625 L 67.03125 125.863281 L 67.011719 126.359375 L 67.007812 126.871094 L 67.023438 127.398438 L 67.054688 127.945312 L 67.101562 128.515625 L 67.160156 129.101562 L 67.230469 129.703125 L 67.308594 130.328125 L 67.394531 130.972656 L 67.488281 131.632812 L 67.582031 132.3125 L 67.679688 133.015625 L 67.78125 133.734375 L 67.882812 134.492188 Z M 67.878906 134.492188 " fill-opacity="1" fill-rule="nonzero"/></g><g clip-path="url(#a7bd95a289)"><path stroke-linecap="butt" transform="matrix(0.25514, -0.000000000000000004, 0.000000000000000004, 0.255696, 58.130002, 80.658729)" fill="none" stroke-linejoin="miter" d="M 38.210065 210.536973 L 41.517077 222.45298 L 44.824089 234.353709 L 48.161721 246.315547 L 51.514664 258.307938 L 54.898227 270.361437 L 58.2971 282.460766 L 61.711284 294.59065 L 65.140778 306.751087 L 68.585582 318.957356 L 72.045696 331.178901 L 75.521121 343.415723 L 78.996546 355.683099 L 82.487281 367.965752 L 85.978015 380.263681 L 89.484061 392.561611 L 92.974795 404.859541 L 96.48084 417.157471 L 99.971575 429.455401 L 103.47762 441.75333 L 106.953045 454.035983 L 110.44378 466.303359 L 113.903894 478.555458 L 117.364009 490.761726 L 120.824123 502.952718 L 124.253617 515.128432 L 127.667801 527.258316 L 131.066674 539.342368 L 134.450237 551.395867 L 137.80318 563.403535 L 141.140812 575.365373 L 144.447824 587.250825 L 147.739526 599.136278 L 148.030421 599.961232 L 148.459107 600.801463 L 148.994966 601.580587 L 149.637996 602.31388 L 150.372887 603.001342 L 151.19964 603.642973 L 152.102945 604.238773 L 153.09811 604.804019 L 154.185137 605.308158 L 155.333405 605.781743 L 156.573535 606.224774 L 157.874905 606.606697 L 159.252827 606.958067 L 160.69199 607.263605 L 162.207703 607.53859 L 163.769348 607.767744 L 165.407544 607.951067 L 167.09167 608.08856 L 168.837038 608.180221 L 170.643646 608.226052 L 172.496185 608.226052 L 174.394655 608.180221 L 176.323745 608.08856 L 178.314077 607.951067 L 180.335028 607.752467 L 182.386601 607.508036 L 184.484103 607.217775 L 186.612227 606.866405 L 188.755661 606.469205 L 190.929715 606.010897 L 193.119079 605.491481 L 195.293133 604.941512 L 216.145681 601.534756 L 236.967608 598.051616 L 257.758915 594.522645 L 278.488981 590.917289 L 299.173116 587.266102 L 319.82663 583.584362 L 340.434214 579.841513 L 360.995867 576.052834 L 381.54221 572.248879 L 402.057933 568.399092 L 422.558345 564.534028 L 443.028137 560.653688 L 463.482618 556.742793 L 524.800132 544.964279 L 565.678474 537.081382 L 586.117645 533.170488 L 606.572127 529.27487 L 627.041918 525.379253 L 647.52702 521.514189 L 668.042743 517.664403 L 688.589086 513.860447 L 709.150739 510.071768 L 729.758323 506.344196 L 750.396527 502.647179 L 771.065352 498.995992 L 791.795418 495.390637 L 812.586724 491.861665 L 833.408652 488.378525 L 854.383681 484.956492 L 855.715672 484.498184 L 857.001732 483.963492 L 858.318413 483.321861 L 859.619784 482.573291 L 860.936464 481.717783 L 862.253145 480.755336 L 863.554515 479.701228 L 864.855886 478.524904 L 866.126636 477.256919 L 867.397386 475.881995 L 868.622205 474.384856 L 869.831714 472.796055 L 871.010603 471.085039 L 872.14356 469.282361 L 873.245898 467.357467 L 874.286994 465.325636 L 875.29747 463.186865 L 876.231395 460.925879 L 877.119389 458.557955 L 877.946142 456.083092 L 878.696343 453.486014 L 879.369994 450.781997 L 879.967093 447.955765 L 880.487641 445.022594 L 880.931638 441.967207 L 881.268464 438.804883 L 881.528738 435.520342 L 881.66653 432.113587 L 881.712461 428.584615 L 881.63591 424.933429 L 881.467497 421.175304 L 881.161292 417.11164 L 695.034697 56.621889 L 57.669381 155.020605 L 55.051329 155.54002 L 52.617001 156.135821 L 50.381706 156.823282 L 48.314824 157.587129 L 46.416354 158.42736 L 44.686297 159.359253 L 43.109342 160.367531 L 41.685489 161.46747 L 40.414739 162.65907 L 39.297092 163.911779 L 38.317236 165.271426 L 37.475173 166.69218 L 36.755592 168.204596 L 36.158492 169.77812 L 35.683875 171.428029 L 35.33174 173.139045 L 35.056155 174.941723 L 34.887743 176.790232 L 34.811191 178.730402 L 34.795881 180.73168 L 34.857122 182.794066 L 34.979604 184.932836 L 35.163327 187.163268 L 35.39298 189.454808 L 35.668565 191.807455 L 35.97477 194.251764 L 36.311595 196.772458 L 36.679041 199.35426 L 37.046486 202.012446 L 37.429242 204.762293 L 37.827309 207.573249 L 38.225375 210.536973 Z M 38.210065 210.536973 " stroke="#000000" stroke-width="0.216" stroke-opacity="1" stroke-miterlimit="4"/></g><path stroke-linecap="butt" transform="matrix(0.25514, -0.000000000000000004, 0.000000000000000004, 0.255696, 58.130002, 80.658729)" fill-opacity="1" fill="#000000" fill-rule="nonzero" stroke-linejoin="miter" d="M 39.18992 210.35365 C 74.020718 336.373057 113.842653 472.826609 148.673451 598.846016 C 150.893436 606.881682 171.577571 610.288438 195.07879 603.994342 C 418.240857 567.925507 630.991961 520.062881 854.138717 484.009323 C 867.01463 480.083151 882.370801 459.184309 878.589172 417.386625 L 694.483528 57.706551 L 57.837793 155.998328 C 29.345435 161.100823 35.117396 179.005387 39.18992 210.35365 Z M 39.18992 210.35365 " stroke="#000000" stroke-width="0.216" stroke-opacity="1" stroke-miterlimit="4"/><path stroke-linecap="butt" transform="matrix(0.25514, -0.000000000000000004, 0.000000000000000004, 0.255696, 58.130002, 80.658729)" fill-opacity="1" fill="#ffffff" fill-rule="nonzero" stroke-linejoin="miter" d="M 45.635531 202.104107 L 145.42768 539.846507 C 147.525183 546.95028 165.759679 550.020943 186.642847 544.41431 C 384.818602 512.393861 653.957321 462.545234 852.133076 430.524786 C 866.739045 428.783216 878.252346 421.297519 871.776115 401.498616 L 694.759113 57.706551 L 59.53723 155.020605 C 34.229402 159.557853 36.081941 175.7514 45.650842 202.119384 Z M 45.635531 202.104107 " stroke="#000000" stroke-width="0.216" stroke-opacity="1" stroke-miterlimit="4"/><path stroke-linecap="butt" transform="matrix(0.25514, -0.000000000000000004, 0.000000000000000004, 0.255696, 58.130002, 80.658729)" fill-opacity="1" fill="#ffffff" fill-rule="nonzero" stroke-linejoin="miter" d="M 699.398116 232.596862 L 750.488388 225.14172 L 825.462637 369.844814 L 772.810719 380.56922 Z M 699.398116 232.596862 " stroke="#000000" stroke-width="0.216" stroke-opacity="1" stroke-miterlimit="4"/><path stroke-linecap="butt" transform="matrix(0.25514, -0.000000000000000004, 0.000000000000000004, 0.255696, 58.130002, 80.658729)" fill-opacity="1" fill="#000000" fill-rule="nonzero" stroke-linejoin="miter" d="M 749.95253 265.808911 L 752.800235 265.671419 L 790.203153 339.275674 L 787.232966 339.947859 Z M 749.95253 265.808911 " stroke="#000000" stroke-width="0.216" stroke-opacity="1" stroke-miterlimit="4"/><path stroke-linecap="butt" transform="matrix(0.25514, -0.000000000000000004, 0.000000000000000004, 0.255696, 58.130002, 80.658729)" fill-opacity="1" fill="#000000" fill-rule="nonzero" stroke-linejoin="miter" d="M 643.010499 121.273863 C 661.000032 123.244587 674.166839 132.074654 672.436782 140.981105 C 670.691414 149.887556 654.707523 155.524743 636.70268 153.554019 C 618.728458 151.583295 605.546341 142.768506 607.291708 133.862055 C 609.037076 124.940327 625.036277 119.318416 643.010499 121.273863 Z M 643.010499 121.273863 " stroke="#000000" stroke-width="0.216" stroke-opacity="1" stroke-miterlimit="4"/><path stroke-linecap="butt" transform="matrix(0.25514, -0.000000000000000004, 0.000000000000000004, 0.255696, 58.130002, 80.658729)" fill-opacity="1" fill="#000000" fill-rule="nonzero" stroke-linejoin="miter" d="M 644.587454 102.895715 C 694.070152 110.396688 730.324802 144.112876 725.532696 178.165156 C 720.755901 212.232713 676.738959 233.742632 627.256262 226.226382 C 577.758254 218.725409 541.503604 185.009221 546.280399 150.956941 C 551.072505 116.904661 595.089446 95.379464 644.587454 102.895715 Z M 644.587454 102.895715 " stroke="#000000" stroke-width="0.216" stroke-opacity="1" stroke-miterlimit="4"/><path stroke-linecap="butt" transform="matrix(0.25514, -0.000000000000000004, 0.000000000000000004, 0.255696, 58.130002, 80.658729)" fill-opacity="1" fill="#ffffff" fill-rule="nonzero" stroke-linejoin="miter" d="M 644.143457 100.084759 C 693.427122 107.295471 729.513359 139.575627 724.751874 172.191875 C 719.990389 204.823401 676.15717 225.431981 626.888816 218.236547 C 577.620462 211.041112 541.518914 178.745679 546.280399 146.12943 C 551.057194 113.513182 594.875103 92.889324 644.143457 100.084759 Z M 644.143457 100.084759 " stroke="#000000" stroke-width="0.216" stroke-opacity="1" stroke-miterlimit="4"/><path stroke-linecap="butt" transform="matrix(0.25514, -0.000000000000000004, 0.000000000000000004, 0.255696, 58.130002, 80.658729)" fill-opacity="1" fill="#ffffff" fill-rule="nonzero" stroke-linejoin="miter" d="M 661.214375 151.155541 C 654.554421 153.99705 645.184554 155.249759 635.217587 154.165096 C 617.212744 152.194372 604.045937 143.364306 605.791305 134.457855 C 606.633368 130.134483 610.828374 126.590235 616.98309 124.298695 C 611.655127 126.590235 608.07253 129.890052 607.291708 133.862055 C 605.561651 142.768506 618.728458 151.598572 636.70268 153.554019 C 645.965376 154.562297 654.676903 153.569296 661.214375 151.155541 Z M 661.214375 151.155541 " stroke="#000000" stroke-width="0.216" stroke-opacity="1" stroke-miterlimit="4"/><path stroke-linecap="butt" transform="matrix(0.25514, -0.000000000000000004, 0.000000000000000004, 0.255696, 58.130002, 80.658729)" fill-opacity="1" fill="#000000" fill-rule="nonzero" stroke-linejoin="miter" d="M 642.321539 111.725781 C 680.658381 117.240753 708.737362 142.019936 705.032284 167.04355 C 703.026643 180.624742 692.06451 191.501917 676.325583 197.719628 C 666.236134 201.706907 654.186975 203.769293 641.295752 203.4332 C 637.223228 203.310985 633.089464 202.974892 628.894458 202.363815 C 590.557615 196.848843 562.478634 172.06966 566.183712 147.046046 C 569.88879 122.022433 603.984696 106.195532 642.321539 111.725781 Z M 642.321539 111.725781 " stroke="#000000" stroke-width="0.216" stroke-opacity="1" stroke-miterlimit="4"/><path stroke-linecap="butt" transform="matrix(0.25514, -0.000000000000000004, 0.000000000000000004, 0.255696, 58.130002, 80.658729)" fill-opacity="1" fill="#ffffff" fill-rule="nonzero" stroke-linejoin="miter" d="M 642.826777 109.434241 C 679.219218 114.292305 705.874347 136.12304 702.352992 158.182929 C 698.846947 180.242818 666.481098 194.17538 630.073346 189.317316 C 593.696214 184.443974 567.025775 162.613239 570.547131 140.55335 C 574.068486 118.508738 606.434335 104.5609 642.826777 109.434241 Z M 642.826777 109.434241 " stroke="#000000" stroke-width="0.216" stroke-opacity="1" stroke-miterlimit="4"/><path stroke-linecap="butt" transform="matrix(0.25514, -0.000000000000000004, 0.000000000000000004, 0.255696, 58.130002, 80.658729)" fill-opacity="1" fill="#000000" fill-rule="nonzero" stroke-linejoin="miter" d="M 642.015334 121.075263 C 662.270782 124.008434 677.106405 137.192426 675.146694 150.51391 C 673.186984 163.835394 655.182141 172.26826 634.926692 169.319812 C 614.686554 166.386642 599.835621 153.187373 601.795332 139.865889 C 603.755043 126.544404 621.775196 118.126815 642.015334 121.075263 Z M 642.015334 121.075263 " stroke="#000000" stroke-width="0.216" stroke-opacity="1" stroke-miterlimit="4"/><g clip-path="url(#52737862d7)"><path fill="#000000" d="M 233.835938 104.382812 C 232.480469 107.527344 228.796875 108.910156 225.605469 107.476562 C 222.417969 106.042969 220.453125 102.078125 222.292969 99.191406 L 225.96875 93.402344 C 227.605469 90.832031 230.527344 90.136719 233.363281 91.410156 C 236.199219 92.6875 237.519531 95.992188 236.3125 98.785156 C 235.425781 100.839844 234.742188 102.289062 233.835938 104.382812 Z M 233.835938 104.382812 " fill-opacity="1" fill-rule="nonzero"/></g><g clip-path="url(#8956906efe)"><path stroke-linecap="butt" transform="matrix(0.25514, -0.000000000000000004, 0.000000000000000004, 0.255696, 58.130002, 80.658729)" fill="none" stroke-linejoin="miter" d="M 688.665637 92.782386 C 683.352983 105.080316 668.915427 110.488349 656.40696 104.881716 C 643.913804 99.275082 636.212753 83.768996 643.423876 72.479344 L 657.830812 49.838932 C 664.245803 39.786711 675.697863 37.067417 686.813098 42.047697 C 697.928332 47.043253 703.103194 59.967537 698.372329 70.890543 C 694.896905 78.926209 692.217613 84.593951 688.665637 92.782386 Z M 688.665637 92.782386 " stroke="#ffffff" stroke-width="0.216" stroke-opacity="1" stroke-miterlimit="4"/></g><path stroke-linecap="butt" transform="matrix(0.25514, -0.000000000000000004, 0.000000000000000004, 0.255696, 58.130002, 80.658729)" fill-opacity="1" fill="#ffffff" fill-rule="nonzero" stroke-linejoin="miter" d="M 672.099957 67.544895 C 683.016158 71.944651 688.099158 83.310688 683.444845 92.935155 C 678.805842 102.559622 666.174893 106.806609 655.274002 102.406853 C 644.34249 98.022373 639.274801 86.656336 643.913804 77.03187 C 648.552807 67.407403 661.183755 63.160416 672.099957 67.544895 Z M 672.099957 67.544895 " stroke="#000000" stroke-width="0.216" stroke-opacity="1" stroke-miterlimit="4"/><path stroke-linecap="butt" transform="matrix(0.25514, -0.000000000000000004, 0.000000000000000004, 0.255696, 58.130002, 80.658729)" fill-opacity="1" fill="#ffffff" fill-rule="nonzero" stroke-linejoin="miter" d="M 641.510096 121.88494 C 659.484318 123.840388 672.666435 132.670454 670.921068 141.576905 C 669.191011 150.483356 653.191809 156.120544 635.217587 154.149819 C 617.212744 152.194372 604.045937 143.364306 605.791305 134.457855 C 607.536672 125.551404 623.520563 119.914216 641.510096 121.88494 Z M 641.510096 121.88494 " stroke="#000000" stroke-width="0.216" stroke-opacity="1" stroke-miterlimit="4"/><path stroke-linecap="butt" transform="matrix(0.25514, -0.000000000000000004, 0.000000000000000004, 0.255696, 58.130002, 80.658729)" fill-opacity="1" fill="#ffffff" fill-rule="nonzero" stroke-linejoin="miter" d="M 651.630165 87.099367 C 655.886412 68.96565 679.816318 80.224748 670.859827 94.508679 C 665.271589 90.261692 658.657565 88.153476 651.630165 87.099367 Z M 651.630165 87.099367 " stroke="#000000" stroke-width="0.216" stroke-opacity="1" stroke-miterlimit="4"/><path stroke-linecap="butt" transform="matrix(0.25514, -0.000000000000000004, 0.000000000000000004, 0.255696, 58.130002, 80.658729)" fill-opacity="1" fill="#ffffff" fill-rule="nonzero" stroke-linejoin="miter" d="M 370.763801 116.644953 C 521.003192 116.644953 642.857397 201.599968 642.857397 306.353887 C 642.857397 411.107806 521.003192 496.047545 370.763801 496.047545 C 220.52441 496.047545 98.685515 411.107806 98.685515 306.353887 C 98.685515 201.599968 220.52441 116.644953 370.763801 116.644953 Z M 370.763801 116.644953 " stroke="#000000" stroke-width="0.216" stroke-opacity="1" stroke-miterlimit="4"/><path stroke-linecap="butt" transform="matrix(0.25514, -0.000000000000000004, 0.000000000000000004, 0.255696, 58.130002, 80.658729)" fill-opacity="1" fill="#000000" fill-rule="nonzero" stroke-linejoin="miter" d="M 372.922545 116.644953 C 521.967737 116.644953 642.842087 200.133383 642.842087 303.084624 C 642.842087 406.035865 521.967737 489.524295 372.922545 489.524295 C 223.892663 489.524295 103.018313 406.035865 103.018313 303.084624 C 103.018313 200.133383 223.892663 116.644953 372.922545 116.644953 Z M 372.922545 116.644953 " stroke="#000000" stroke-width="0.216" stroke-opacity="1" stroke-miterlimit="4"/><path stroke-linecap="butt" transform="matrix(0.25514, -0.000000000000000004, 0.000000000000000004, 0.255696, 58.130002, 80.658729)" fill-opacity="1" fill="#000000" fill-rule="nonzero" stroke-linejoin="miter" d="M 371.085316 120.983601 C 506.703427 120.983601 616.676886 196.482196 616.676886 289.56454 C 616.676886 382.66216 506.703427 458.145478 371.085316 458.145478 C 235.467205 458.145478 125.463126 382.66216 125.463126 289.56454 C 125.463126 196.482196 235.451894 120.983601 371.085316 120.983601 Z M 371.085316 120.983601 " stroke="#000000" stroke-width="0.216" stroke-opacity="1" stroke-miterlimit="4"/><path stroke-linecap="butt" transform="matrix(0.25514, -0.000000000000000004, 0.000000000000000004, 0.255696, 58.130002, 80.658729)" fill-opacity="1" fill="#ffffff" fill-rule="nonzero" stroke-linejoin="miter" d="M 522.595457 156.731621 C 582.244154 187.484084 620.825961 236.446649 620.825961 291.581095 C 620.825961 384.663438 510.837192 460.146756 375.219081 460.146756 C 318.188435 460.146756 265.72024 446.809995 224.030455 424.414013 C 265.000659 445.450348 315.861278 457.916324 370.962834 457.916324 C 506.580945 457.916324 616.569714 382.433006 616.569714 289.335386 C 616.569714 235.530033 579.809826 187.591022 522.595457 156.731621 Z M 522.595457 156.731621 " stroke="#000000" stroke-width="0.216" stroke-opacity="1" stroke-miterlimit="4"/><path stroke-linecap="butt" transform="matrix(0.25514, -0.000000000000000004, 0.000000000000000004, 0.255696, 58.130002, 80.658729)" fill-opacity="1" fill="#000000" fill-rule="nonzero" stroke-linejoin="miter" d="M 677.535092 132.456577 C 677.535092 143.59346 663.740565 152.606849 646.715578 152.606849 C 629.7059 152.606849 609.741347 141.057489 611.25706 130.027545 L 614.594693 105.874716 C 616.125717 94.860049 630.211138 87.084091 647.236126 87.084091 C 664.245803 87.084091 678.05564 96.09748 678.05564 107.234363 C 678.05564 118.111538 677.535092 121.273863 677.535092 132.456577 Z M 677.535092 132.456577 " stroke="#000000" stroke-width="0.216" stroke-opacity="1" stroke-miterlimit="4"/><path stroke-linecap="butt" transform="matrix(0.25514, -0.000000000000000004, 0.000000000000000004, 0.255696, 58.130002, 80.658729)" fill-opacity="1" fill="#ffffff" fill-rule="nonzero" stroke-linejoin="miter" d="M 677.933158 106.714947 C 677.963779 107.142701 677.994399 107.570456 677.994399 107.99821 C 677.994399 119.593401 663.847737 128.988713 646.409373 128.988713 C 628.971009 128.988713 614.824346 119.593401 614.824346 107.99821 C 614.824346 107.570456 614.839657 107.142701 614.885587 106.714947 C 615.896063 117.699061 629.614039 126.406912 646.409373 126.406912 C 663.204707 126.406912 676.922682 117.699061 677.933158 106.714947 Z M 677.933158 106.714947 " stroke="#000000" stroke-width="0.216" stroke-opacity="1" stroke-miterlimit="4"/><path stroke-linecap="butt" transform="matrix(0.25514, -0.000000000000000004, 0.000000000000000004, 0.255696, 58.130002, 80.658729)" fill-opacity="1" fill="#ffffff" fill-rule="nonzero" stroke-linejoin="miter" d="M 626.414199 137.482687 C 634.865451 133.0371 642.643054 141.454689 638.892045 149.154263 C 639.137009 148.405693 639.274801 147.611293 639.320731 146.786339 C 639.596316 141.561628 635.585033 137.100764 630.394861 136.825779 C 628.986319 136.749395 627.654328 136.993825 626.414199 137.482687 Z M 626.414199 137.482687 " stroke="#000000" stroke-width="0.216" stroke-opacity="1" stroke-miterlimit="4"/><path stroke-linecap="butt" transform="matrix(0.25514, -0.000000000000000004, 0.000000000000000004, 0.255696, 58.130002, 80.658729)" fill="none" stroke-linejoin="miter" d="M 515.598677 93.194863 C 532.761457 95.043372 545.759851 105.095593 544.626893 115.651952 C 543.493935 126.208312 528.658312 133.281531 511.495533 131.433022 C 494.332753 129.584514 481.334359 119.532293 482.467316 108.975933 C 483.600274 98.419574 498.435897 91.346354 515.598677 93.194863 Z M 515.598677 93.194863 " stroke="#000000" stroke-width="0.216" stroke-opacity="1" stroke-miterlimit="4"/><path stroke-linecap="butt" transform="matrix(0.25514, -0.000000000000000004, 0.000000000000000004, 0.255696, 58.130002, 80.658729)" fill-opacity="1" fill="#ffffff" fill-rule="nonzero" stroke-linejoin="miter" d="M 370.05953 117.286584 C 504.406891 117.286584 613.354563 192.769902 613.354563 285.867522 C 613.354563 378.949865 504.406891 454.433183 370.05953 454.433183 C 235.712169 454.433183 126.749186 378.949865 126.749186 285.867522 C 126.749186 192.769902 235.712169 117.286584 370.05953 117.286584 Z M 370.05953 117.286584 " stroke="#000000" stroke-width="0.216" stroke-opacity="1" stroke-miterlimit="4"/><path stroke-linecap="butt" transform="matrix(0.25514, -0.000000000000000004, 0.000000000000000004, 0.255696, 58.130002, 80.658729)" fill-opacity="1" fill="#000000" fill-rule="nonzero" stroke-linejoin="miter" d="M 372.738822 219.519809 C 416.036182 219.519809 451.142564 244.344823 451.142564 274.959793 C 451.142564 305.559487 416.036182 330.3845 372.738822 330.3845 C 329.441462 330.3845 294.33508 305.559487 294.33508 274.959793 C 294.33508 244.344823 329.441462 219.519809 372.738822 219.519809 Z M 372.738822 219.519809 " stroke="#ffff00" stroke-width="0.216" stroke-opacity="1" stroke-miterlimit="4"/><path stroke-linecap="butt" transform="matrix(0.25514, -0.000000000000000004, 0.000000000000000004, 0.255696, 58.130002, 80.658729)" fill-opacity="1" fill="#ffffff" fill-rule="nonzero" stroke-linejoin="miter" d="M 372.738822 263.211833 C 381.909656 263.211833 389.350433 268.467097 389.350433 274.944516 C 389.350433 281.437212 381.909656 286.692476 372.738822 286.692476 C 363.567988 286.692476 356.127211 281.437212 356.127211 274.944516 C 356.127211 268.467097 363.567988 263.211833 372.738822 263.211833 Z M 372.738822 263.211833 " stroke="#ffffff" stroke-width="0.216" stroke-opacity="1" stroke-miterlimit="4"/><path stroke-linecap="butt" transform="matrix(0.25514, -0.000000000000000004, 0.000000000000000004, 0.255696, 58.130002, 80.658729)" fill-opacity="1" fill="#ffffff" fill-rule="nonzero" stroke-linejoin="miter" d="M 366.216659 274.837578 C 366.706587 268.849021 365.481768 259.713416 371.115936 256.566368 C 372.447927 255.665029 373.841159 256.138614 374.775084 256.795522 C 378.434231 259.423154 379.567189 266.939404 378.617954 275.509763 C 374.162674 278.962349 370.013599 278.80958 366.216659 274.837578 Z M 366.216659 274.837578 " stroke="#000000" stroke-width="2" stroke-opacity="1" stroke-miterlimit="4"/><path stroke-linecap="butt" transform="matrix(0.25514, -0.000000000000000004, 0.000000000000000004, 0.255696, 58.130002, 80.658729)" fill="none" stroke-linejoin="miter" d="M 515.598677 93.194863 C 532.761457 95.043372 545.759851 105.095593 544.626893 115.651952 C 543.493935 126.208312 528.658312 133.281531 511.495533 131.433022 C 494.332753 129.584514 481.334359 119.532293 482.467316 108.975933 C 483.600274 98.419574 498.435897 91.346354 515.598677 93.194863 Z M 515.598677 93.194863 " stroke="#000000" stroke-width="0.216" stroke-opacity="1" stroke-miterlimit="4"/><path stroke-linecap="butt" transform="matrix(0.25514, -0.000000000000000004, 0.000000000000000004, 0.255696, 58.130002, 80.658729)" fill-opacity="1" fill="#000000" fill-rule="nonzero" stroke-linejoin="miter" d="M 699.398116 232.596862 L 750.488388 225.14172 L 825.462637 369.844814 L 821.374802 370.685045 L 748.299024 229.633138 L 701.327206 236.49248 Z M 699.398116 232.596862 " stroke="#000000" stroke-width="0.216" stroke-opacity="1" stroke-miterlimit="4"/><path stroke-linecap="butt" transform="matrix(0.25514, -0.000000000000000004, 0.000000000000000004, 0.255696, 58.130002, 80.658729)" fill-opacity="1" fill="#ffffff" fill-rule="nonzero" stroke-linejoin="miter" d="M 749.906599 291.856079 L 760.531906 312.647983 L 787.095174 308.798196 L 787.569791 305.788641 L 784.875189 299.845914 L 785.671321 287.593815 L 782.517412 282.048289 L 756.566554 284.905075 L 755.846973 289.625647 L 751.024247 289.931186 L 750.825214 289.931186 L 750.534319 289.96174 L 749.906599 289.992294 Z M 749.906599 291.856079 " stroke="#000000" stroke-width="1" stroke-opacity="1" stroke-miterlimit="4"/><path stroke-linecap="butt" transform="matrix(0.25514, -0.000000000000000004, 0.000000000000000004, 0.255696, 58.130002, 80.658729)" fill-opacity="1" fill="#ffffff" fill-rule="nonzero" stroke-linejoin="miter" d="M 515.598677 93.194863 C 532.761457 95.043372 545.759851 105.095593 544.626893 115.651952 C 544.381929 117.974046 543.463315 120.112816 542.024152 122.03771 C 542.422219 118.111538 539.543893 114.96449 539.543893 114.96449 L 487.642178 121.304417 C 483.96772 117.65323 481.992699 113.360413 482.467316 108.975933 C 483.600274 98.419574 498.435897 91.346354 515.598677 93.194863 Z M 515.598677 93.194863 " stroke="#000000" stroke-width="0.216" stroke-opacity="1" stroke-miterlimit="4"/><path stroke-linecap="butt" transform="matrix(0.25514, -0.000000000000000004, 0.000000000000000004, 0.255696, 58.130002, 80.658729)" fill-opacity="1" fill="#000000" fill-rule="nonzero" stroke-linejoin="miter" d="M 487.565627 121.273863 C 502.232837 119.242031 518.676035 117.683784 533.358556 115.651952 C 520.008026 108.227364 502.860557 106.287193 484.549509 117.393522 C 485.207849 118.646231 486.310187 119.929493 487.565627 121.273863 Z M 487.565627 121.273863 " stroke="#000000" stroke-width="0.216" stroke-opacity="1" stroke-miterlimit="4"/><path stroke-linecap="butt" transform="matrix(0.25514, -0.000000000000000004, 0.000000000000000004, 0.255696, 58.130002, 80.658729)" fill-opacity="1" fill="#000000" fill-rule="nonzero" stroke-linejoin="miter" d="M 624.913795 141.439413 C 631.834024 140.140873 637.743777 141.546351 636.901713 150.926387 C 627.210331 161.46747 622.540708 174.452861 622.265123 186.10916 C 622.862223 208.932896 625.189379 243.06156 617.794533 254.56509 C 607.567292 276.533317 584.265106 284.477321 569.414173 297.523821 C 570.210305 300.884746 568.970176 304.260948 567.94439 305.528933 C 562.84608 309.409273 559.202242 312.617429 554.103932 316.49777 C 554.149863 317.582432 554.195794 318.667094 554.226414 319.751756 C 549.036243 323.555712 543.846071 327.344391 538.640589 331.13307 C 544.152276 334.035687 547.995146 337.167458 551.39402 340.360337 C 552.021739 341.719983 551.746155 342.499107 550.582577 342.667153 C 546.494743 338.160458 541.013676 334.234287 532.409321 331.545547 L 511.265879 346.730817 C 511.128087 349.893142 510.990295 353.055467 510.867813 356.217791 L 498.114382 363.672934 C 497.716316 363.627103 497.30294 363.581272 496.904873 363.535442 C 494.057169 365.338119 491.209464 367.140797 488.361759 368.958752 C 487.504386 368.637937 486.647012 367.904644 485.789639 367.583828 C 486.218325 360.984194 481.640563 355.591437 480.400434 363.474334 C 479.267476 362.802149 478.134518 362.114687 477.001561 361.442502 C 477.231214 357.333007 477.705832 352.322174 477.920175 348.212679 C 479.374648 346.639155 481.655874 345.676709 483.095036 344.103185 L 473.878271 336.15918 L 473.862961 333.577379 C 481.456841 327.756868 489.03541 321.92108 496.629289 316.100569 C 499.24734 317.429662 501.865391 317.781032 504.483442 315.963077 C 515.062819 309.22595 525.642195 302.488824 536.206261 295.766974 C 537.737285 296.576651 539.283619 297.386328 540.814643 298.196006 C 545.836402 294.498988 550.842851 290.786694 555.86461 287.089677 C 557.717149 286.173061 559.569688 286.52443 561.422227 288.174339 C 574.114417 278.779026 586.806606 269.383713 599.498796 259.9884 C 606.005648 255.680306 610.904925 245.307269 609.266729 209.971727 C 609.634175 193.396256 608.424666 177.034663 614.962139 159.955053 C 617.855774 154.256758 622.004849 147.137708 624.913795 141.439413 Z M 624.913795 141.439413 " stroke="#000000" stroke-width="0.216" stroke-opacity="1" stroke-miterlimit="4"/><path stroke-linecap="butt" transform="matrix(0.25514, -0.000000000000000004, 0.000000000000000004, 0.255696, 58.130002, 80.658729)" fill-opacity="1" fill="#000000" fill-rule="nonzero" stroke-linejoin="miter" d="M 723.664847 262.142448 C 724.859046 262.142448 725.823591 262.87574 725.823591 263.777079 C 725.823591 264.678418 724.859046 265.396434 723.664847 265.396434 C 722.455338 265.396434 721.490793 264.678418 721.490793 263.777079 C 721.490793 262.87574 722.455338 262.142448 723.664847 262.142448 Z M 723.664847 262.142448 " stroke="#000000" stroke-width="0.216" stroke-opacity="1" stroke-miterlimit="4"/><path stroke-linecap="butt" transform="matrix(0.25514, -0.000000000000000004, 0.000000000000000004, 0.255696, 58.130002, 80.658729)" fill-opacity="1" fill="#ffffff" fill-rule="nonzero" stroke-linejoin="miter" d="M 541.932291 297.798806 C 543.218351 297.600205 544.458481 297.141898 545.744541 297.798806 C 550.81223 294.361496 555.481854 290.924186 560.549544 287.486877 C 558.3908 287.028569 557.288462 287.028569 554.777583 288.464601 C 550.735679 291.382494 545.989505 294.880912 541.932291 297.798806 Z M 541.932291 297.798806 " stroke="#000000" stroke-width="0.216" stroke-opacity="1" stroke-miterlimit="4"/><path stroke-linecap="butt" transform="matrix(0.25514, -0.000000000000000004, 0.000000000000000004, 0.255696, 58.130002, 80.658729)" fill-opacity="1" fill="#ffffff" fill-rule="nonzero" stroke-linejoin="miter" d="M 554.364206 315.290892 C 554.945995 314.129845 554.823514 311.899413 554.59386 310.463382 C 559.462516 306.73581 564.193381 303.374886 569.046727 299.662591 C 568.801763 301.862469 568.219974 304.00124 566.07654 305.94141 C 562.019327 308.859304 558.40611 312.357721 554.364206 315.290892 Z M 554.364206 315.290892 " stroke="#000000" stroke-width="0.216" stroke-opacity="1" stroke-miterlimit="4"/><path stroke-linecap="butt" transform="matrix(0.25514, -0.000000000000000004, 0.000000000000000004, 0.255696, 58.130002, 80.658729)" fill-opacity="1" fill="#ffffff" fill-rule="nonzero" stroke-linejoin="miter" d="M 622.173262 216.4797 C 623.872699 250.669472 612.803395 266.11445 597.186949 275.72364 C 622.081401 263.166002 623.842078 241.640806 622.173262 216.4797 Z M 622.173262 216.4797 " stroke="#000000" stroke-width="0.216" stroke-opacity="1" stroke-miterlimit="4"/><path stroke-linecap="butt" transform="matrix(0.25514, -0.000000000000000004, 0.000000000000000004, 0.255696, 58.130002, 80.658729)" fill-opacity="1" fill="#ffffff" fill-rule="nonzero" stroke-linejoin="miter" d="M 634.191801 143.364306 C 617.197434 168.510135 619.080593 190.768624 619.249006 207.848233 C 619.432729 224.927843 620.244172 237.500757 618.024187 243.733745 C 609.98631 266.297773 589.057212 279.038734 568.449628 292.772695 C 568.342456 292.833803 568.250595 293.032403 568.128113 292.986572 C 567.607564 292.757418 567.31667 292.818526 567.132947 293.032403 C 566.995155 293.215726 566.933914 293.490711 566.887983 293.811526 C 566.872673 293.949019 566.65833 293.964296 566.551158 294.04068 C 561.789673 297.218282 557.074119 300.487546 552.557598 303.940132 C 550.919402 301.923577 549.082173 300.029238 546.770327 298.364052 C 551.516502 295.048958 556.277986 291.749141 561.024161 288.434047 C 561.085402 288.403493 561.161953 288.357662 561.223194 288.296554 C 561.483468 288.082677 561.743742 287.792416 562.065257 287.838246 C 563.228836 287.991016 563.672833 287.731308 563.427869 287.028569 C 563.397248 286.952184 563.596281 286.936907 563.672833 286.891077 C 591.874296 270.178114 610.108792 252.792966 609.542313 222.896011 C 608.883973 188.675684 603.020151 173.765399 624.270765 141.912997 C 629.01694 140.415858 632.323951 140.90472 634.191801 143.364306 Z M 634.191801 143.364306 " stroke="#000000" stroke-width="0.216" stroke-opacity="1" stroke-miterlimit="4"/><path stroke-linecap="butt" transform="matrix(0.25514, -0.000000000000000004, 0.000000000000000004, 0.255696, 58.130002, 80.658729)" fill-opacity="1" fill="#ffffff" fill-rule="nonzero" stroke-linejoin="miter" d="M 94.827335 172.558522 C 105.422021 172.558522 114.011066 178.531802 114.011066 185.91056 C 114.011066 193.289318 105.422021 199.262598 94.827335 199.262598 C 84.232648 199.262598 75.643603 193.289318 75.643603 185.91056 C 75.643603 178.531802 84.232648 172.558522 94.827335 172.558522 Z M 94.827335 172.558522 " stroke="#000000" stroke-width="0.216" stroke-opacity="1" stroke-miterlimit="4"/><path stroke-linecap="butt" transform="matrix(0.25514, -0.000000000000000004, 0.000000000000000004, 0.255696, 58.130002, 80.658729)" fill-opacity="1" fill="#000000" fill-rule="nonzero" stroke-linejoin="miter" d="M 94.873265 181.923281 C 103.998169 181.923281 111.393015 185.803621 111.393015 190.585301 C 111.393015 195.36698 103.998169 199.247321 94.873265 199.247321 C 85.748362 199.247321 78.353516 195.36698 78.353516 190.585301 C 78.353516 185.803621 85.748362 181.923281 94.873265 181.923281 Z M 94.873265 181.923281 " stroke="#000000" stroke-width="0.216" stroke-opacity="1" stroke-miterlimit="4"/><path stroke-linecap="butt" transform="matrix(0.25514, -0.000000000000000004, 0.000000000000000004, 0.255696, 58.130002, 80.658729)" fill-opacity="1" fill="#ffffff" fill-rule="nonzero" stroke-linejoin="miter" d="M 94.55175 182.748235 C 100.308401 182.748235 104.962714 185.192544 104.962714 188.2021 L 104.962714 193.62541 C 104.962714 196.634966 100.308401 199.079275 94.55175 199.079275 C 88.81041 199.079275 84.156097 196.634966 84.156097 193.62541 L 84.156097 188.2021 C 84.156097 185.192544 88.81041 182.748235 94.55175 182.748235 Z M 94.55175 182.748235 " stroke="#000000" stroke-width="0.216" stroke-opacity="1" stroke-miterlimit="4"/><path stroke-linecap="butt" transform="matrix(0.25514, -0.000000000000000004, 0.000000000000000004, 0.255696, 58.130002, 80.658729)" fill-opacity="1" fill="#000000" fill-rule="nonzero" stroke-linejoin="miter" d="M 189.628344 433.351018 C 202.856392 433.351018 213.588871 440.699222 213.588871 449.773719 C 213.588871 459.887048 214.951482 462.025818 214.951482 471.283639 C 214.951482 480.358136 203.912799 487.70634 190.301995 487.70634 C 176.706501 487.70634 165.667818 480.358136 165.667818 471.283639 L 165.667818 449.773719 C 165.667818 440.699222 176.400296 433.351018 189.628344 433.351018 Z M 189.628344 433.351018 " stroke="#ffffff" stroke-width="0.216" stroke-opacity="1" stroke-miterlimit="4"/><path stroke-linecap="butt" transform="matrix(0.25514, -0.000000000000000004, 0.000000000000000004, 0.255696, 58.130002, 80.658729)" fill="none" stroke-linejoin="miter" d="M 189.812067 433.427403 C 202.887013 433.427403 213.497009 440.531176 213.497009 449.300134 C 213.497009 458.08437 202.887013 465.188143 189.812067 465.188143 C 176.721812 465.188143 166.127125 458.08437 166.127125 449.300134 C 166.127125 440.531176 176.721812 433.427403 189.812067 433.427403 Z M 189.812067 433.427403 " stroke="#000000" stroke-width="0.216" stroke-opacity="1" stroke-miterlimit="4"/><path stroke-linecap="butt" transform="matrix(0.25514, -0.000000000000000004, 0.000000000000000004, 0.255696, 58.130002, 80.658729)" fill-opacity="1" fill="#ffffff" fill-rule="nonzero" stroke-linejoin="miter" d="M 213.497009 449.697335 C 213.51232 449.81955 213.51232 449.957043 213.51232 450.094535 C 213.51232 459.306525 202.902323 466.776944 189.812067 466.776944 C 176.737122 466.776944 166.127125 459.306525 166.127125 450.094535 C 166.127125 449.957043 166.127125 449.81955 166.142435 449.697335 C 166.44864 458.28297 177.012706 464.45485 189.903929 464.45485 C 202.795151 464.45485 213.190805 458.28297 213.497009 449.697335 Z M 213.497009 449.697335 " stroke="#000000" stroke-width="0.216" stroke-opacity="1" stroke-miterlimit="4"/><path stroke-linecap="butt" transform="matrix(0.25514, -0.000000000000000004, 0.000000000000000004, 0.255696, 58.130002, 80.658729)" fill-opacity="1" fill="#ffffff" fill-rule="nonzero" stroke-linejoin="miter" d="M 474.046684 333.730148 L 498.833964 351.268066 L 520.89602 334.127349 L 521.799325 328.597099 L 552.649459 307.239949 L 536.068469 295.797528 C 525.458472 302.549931 514.848475 309.317612 504.238479 316.070016 C 502.018494 317.399109 499.446373 317.383832 496.736461 316.283893 Z M 474.046684 333.730148 " stroke="#000000" stroke-width="0.216" stroke-opacity="1" stroke-miterlimit="4"/><path stroke-linecap="butt" transform="matrix(0.25514, -0.000000000000000004, 0.000000000000000004, 0.255696, 58.130002, 80.658729)" fill-opacity="1" fill="#000000" fill-rule="nonzero" stroke-linejoin="miter" d="M 759.307087 303.191562 L 784.752707 299.845914 L 785.625391 287.716031 L 760.884042 291.199171 L 756.765587 285.042568 L 760.057289 291.30611 Z M 759.307087 303.191562 " stroke="#000000" stroke-width="0.216" stroke-opacity="1" stroke-miterlimit="4"/><path stroke-linecap="butt" transform="matrix(0.25514, -0.000000000000000004, 0.000000000000000004, 0.255696, 58.130002, 80.658729)" fill-opacity="1" fill="#ffffff" fill-rule="nonzero" stroke-linejoin="miter" d="M 104.396235 187.285484 C 104.442166 187.422976 104.457476 187.560468 104.457476 187.697961 C 104.457476 189.867285 100.032816 191.624132 94.56706 191.624132 C 89.101305 191.624132 84.676645 189.867285 84.676645 187.697961 C 84.676645 187.560468 84.691955 187.422976 84.737886 187.285484 C 85.258434 189.240931 89.46875 190.783901 94.56706 190.783901 C 99.665371 190.783901 103.860376 189.240931 104.396235 187.285484 Z M 104.396235 187.285484 " stroke="#ffffff" stroke-width="0.216" stroke-opacity="1" stroke-miterlimit="4"/><path stroke-linecap="butt" transform="matrix(0.25514, -0.000000000000000004, 0.000000000000000004, 0.255696, 58.130002, 80.658729)" fill-opacity="1" fill="#000000" fill-rule="nonzero" stroke-linejoin="miter" d="M 760.807491 308.446827 L 760.868732 312.647983 L 787.248276 308.920412 L 787.202345 305.085902 L 761.603623 308.355165 L 759.337708 303.023516 Z M 760.807491 308.446827 " stroke="#000000" stroke-width="0.216" stroke-opacity="1" stroke-miterlimit="4"/><path stroke-linecap="butt" transform="matrix(0.25514, -0.000000000000000004, 0.000000000000000004, 0.255696, 58.130002, 80.658729)" fill-opacity="1" fill="#000000" fill-rule="nonzero" stroke-linejoin="miter" d="M 666.404547 78.926209 C 665.684966 77.948486 664.07739 77.780439 663.036294 77.887378 C 661.444029 81.141364 659.775213 84.74672 658.182948 88.000706 C 657.907364 89.329799 659.775213 88.993707 660.816309 89.299246 C 662.423885 86.045259 664.812282 82.180196 666.404547 78.926209 Z M 666.404547 78.926209 " stroke="#000000" stroke-width="0.216" stroke-opacity="1" stroke-miterlimit="4"/><path stroke-linecap="butt" transform="matrix(0.25514, -0.000000000000000004, 0.000000000000000004, 0.255696, 58.130002, 80.658729)" fill-opacity="1" fill="#000000" fill-rule="nonzero" stroke-linejoin="miter" d="M 160.018339 509.61346 L 159.926478 505.595627 L 225.239964 498.827946 L 233.017566 520.704512 L 232.925705 524.707068 L 167.428495 535.752289 Z M 160.018339 509.61346 " stroke="#000000" stroke-width="0.216" stroke-opacity="1" stroke-miterlimit="4"/><path stroke-linecap="butt" transform="matrix(0.25514, -0.000000000000000004, 0.000000000000000004, 0.255696, 58.130002, 80.658729)" fill-opacity="1" fill="#000000" fill-rule="nonzero" stroke-linejoin="miter" d="M 514.343237 317.918524 C 517.129701 317.918524 519.395617 319.461494 519.395617 321.355834 C 519.395617 323.250173 517.129701 324.777866 514.343237 324.777866 C 511.541463 324.777866 509.275548 323.250173 509.275548 321.355834 C 509.275548 319.461494 511.541463 317.918524 514.343237 317.918524 Z M 514.343237 317.918524 " stroke="#000000" stroke-width="0.216" stroke-opacity="1" stroke-miterlimit="4"/><path stroke-linecap="butt" transform="matrix(0.25514, -0.000000000000000004, 0.000000000000000004, 0.255696, 58.130002, 80.658729)" fill-opacity="1" fill="#000000" fill-rule="nonzero" stroke-linejoin="miter" d="M 536.022538 303.481824 C 539.513273 303.481824 542.345667 305.14701 542.345667 307.194118 C 542.345667 309.241227 539.513273 310.906413 536.022538 310.906413 C 532.531803 310.906413 529.699409 309.241227 529.699409 307.194118 C 529.699409 305.14701 532.531803 303.481824 536.022538 303.481824 Z M 536.022538 303.481824 " stroke="#000000" stroke-width="0.216" stroke-opacity="1" stroke-miterlimit="4"/><path stroke-linecap="butt" transform="matrix(0.25514, -0.000000000000000004, 0.000000000000000004, 0.255696, 58.130002, 80.658729)" fill-opacity="1" fill="#ffffff" fill-rule="nonzero" stroke-linejoin="miter" d="M 535.195785 304.566486 C 537.844457 304.566486 539.98789 306.017795 539.98789 307.805196 C 539.98789 309.592597 537.844457 311.059182 535.195785 311.059182 C 532.562424 311.059182 530.41899 309.592597 530.41899 307.805196 C 530.41899 306.017795 532.562424 304.566486 535.195785 304.566486 Z M 535.195785 304.566486 " stroke="#000000" stroke-width="0.216" stroke-opacity="1" stroke-miterlimit="4"/><path stroke-linecap="butt" transform="matrix(0.25514, -0.000000000000000004, 0.000000000000000004, 0.255696, 58.130002, 80.658729)" fill-opacity="1" fill="#ffffff" fill-rule="nonzero" stroke-linejoin="miter" d="M 478.027347 348.304341 L 488.530172 357.226069 L 488.361759 368.683767 L 490.290849 357.577438 L 496.950804 353.467944 L 489.72437 355.57616 Z M 478.027347 348.304341 " stroke="#000000" stroke-width="0.216" stroke-opacity="1" stroke-miterlimit="4"/><path stroke-linecap="butt" transform="matrix(0.25514, -0.000000000000000004, 0.000000000000000004, 0.255696, 58.130002, 80.658729)" fill-opacity="1" fill="#ffffff" fill-rule="nonzero" stroke-linejoin="miter" d="M 160.018339 505.549796 L 225.239964 494.764282 L 232.925705 520.643404 L 167.428495 531.688626 Z M 160.018339 505.549796 " stroke="#000000" stroke-width="1" stroke-opacity="1" stroke-miterlimit="4"/><path stroke-linecap="butt" transform="matrix(0.25514, -0.000000000000000004, 0.000000000000000004, 0.255696, 58.130002, 80.658729)" fill-opacity="1" fill="#000000" fill-rule="nonzero" stroke-linejoin="miter" d="M 245.924099 510.835614 L 245.893479 509.445414 L 268.460773 507.108043 L 271.155376 514.670124 L 271.109445 516.045048 L 248.496219 519.864281 Z M 245.924099 510.835614 " stroke="#000000" stroke-width="0.216" stroke-opacity="1" stroke-miterlimit="4"/><path stroke-linecap="butt" transform="matrix(0.25514, -0.000000000000000004, 0.000000000000000004, 0.255696, 58.130002, 80.658729)" fill-opacity="1" fill="#ffffff" fill-rule="nonzero" stroke-linejoin="miter" d="M 245.924099 509.430137 L 268.460773 505.702565 L 271.109445 514.654847 L 248.496219 518.458803 Z M 245.924099 509.430137 " stroke="#000000" stroke-width="1" stroke-opacity="1" stroke-miterlimit="4"/><path stroke-linecap="butt" transform="matrix(0.25514, -0.000000000000000004, 0.000000000000000004, 0.255696, 58.130002, 80.658729)" fill-opacity="1" fill="#000000" fill-rule="nonzero" stroke-linejoin="miter" d="M 281.826613 504.862334 L 281.780683 503.472133 L 304.347977 501.134763 L 307.04258 508.681567 L 306.996649 510.071768 L 284.383423 513.891001 Z M 281.826613 504.862334 " stroke="#000000" stroke-width="0.216" stroke-opacity="1" stroke-miterlimit="4"/><path stroke-linecap="butt" transform="matrix(0.25514, -0.000000000000000004, 0.000000000000000004, 0.255696, 58.130002, 80.658729)" fill-opacity="1" fill="#ffffff" fill-rule="nonzero" stroke-linejoin="miter" d="M 281.826613 503.456856 L 304.347977 499.729285 L 306.996649 508.66629 L 284.383423 512.485523 Z M 281.826613 503.456856 " stroke="#000000" stroke-width="1" stroke-opacity="1" stroke-miterlimit="4"/><path stroke-linecap="butt" transform="matrix(0.25514, -0.000000000000000004, 0.000000000000000004, 0.255696, 58.130002, 80.658729)" fill-opacity="1" fill="#000000" fill-rule="nonzero" stroke-linejoin="miter" d="M 628.41984 138.781226 C 607.506051 165.882503 612.145054 188.9965 610.767133 205.801125 C 607.44481 181.984389 612.696223 158.488468 628.41984 138.781226 Z M 628.41984 138.781226 " stroke="#000000" stroke-width="0.216" stroke-opacity="1" stroke-miterlimit="4"/><g clip-path="url(#3b5a385ff0)"><path stroke-linecap="butt" transform="matrix(0.25514, -0.000000000000000004, 0.000000000000000004, 0.255696, 58.130002, 80.658729)" fill-opacity="1" fill="#000000" fill-rule="nonzero" stroke-linejoin="miter" d="M 193.517145 567.344984 C 219.024006 567.344984 239.708141 583.202438 239.708141 602.756911 C 239.708141 622.296106 219.024006 638.153561 193.517145 638.153561 C 167.994974 638.153561 147.310839 622.296106 147.310839 602.756911 C 147.310839 583.202438 167.994974 567.344984 193.517145 567.344984 Z M 193.517145 567.344984 " stroke="#000000" stroke-width="0.216" stroke-opacity="1" stroke-miterlimit="4"/></g><path stroke-linecap="butt" transform="matrix(0.25514, -0.000000000000000004, 0.000000000000000004, 0.255696, 58.130002, 80.658729)" fill-opacity="1" fill="#000000" fill-rule="nonzero" stroke-linejoin="miter" d="M 804.824432 453.929045 C 830.331293 453.929045 851.015428 469.7865 851.015428 489.340972 C 851.015428 508.880167 830.331293 524.752899 804.824432 524.752899 C 779.317572 524.752899 758.618126 508.880167 758.618126 489.340972 C 758.618126 469.7865 779.317572 453.929045 804.824432 453.929045 Z M 804.824432 453.929045 " stroke="#000000" stroke-width="0.216" stroke-opacity="1" stroke-miterlimit="4"/><path stroke-linecap="butt" transform="matrix(0.25514, -0.000000000000000004, 0.000000000000000004, 0.255696, 58.130002, 80.658729)" fill-opacity="1" fill="#000000" fill-rule="nonzero" stroke-linejoin="miter" d="M 369.049054 276.181948 C 369.049054 276.181948 368.038578 259.682862 372.202964 256.963568 C 376.367349 254.228997 368.620367 268.436543 371.207798 276.899963 C 370.411665 280.15395 367.931406 274.440377 369.049054 276.181948 Z M 369.049054 276.181948 " stroke="#000000" stroke-width="0.216" stroke-opacity="1" stroke-miterlimit="4"/><path stroke-linecap="butt" transform="matrix(0.25514, -0.000000000000000004, 0.000000000000000004, 0.255696, 58.130002, 80.658729)" fill-opacity="1" fill="#000000" fill-rule="nonzero" stroke-linejoin="miter" d="M 756.015385 289.442324 L 755.004909 294.835081 L 750.274045 289.96174 Z M 756.015385 289.442324 " stroke="#000000" stroke-width="0.216" stroke-opacity="1" stroke-miterlimit="4"/><g fill="#000000" fill-opacity="1"><g transform="translate(114.35654, 159.030539)"><g><path d="M -1.503906 -30.445312 C -1.886719 -30.605469 -2.179688 -30.890625 -2.515625 -30.335938 C -3.140625 -29.328125 -4.972656 -26.566406 -7.824219 -19.761719 C -8.011719 -19.308594 -8.1875 -18.890625 -8.351562 -18.445312 L -9.238281 -19.863281 C -9.378906 -20.105469 -10.136719 -20.011719 -10.296875 -19.628906 C -10.34375 -19.523438 -10.304688 -19.367188 -10.210938 -19.246094 C -10.027344 -19.003906 -9.710938 -18.585938 -8.832031 -17.253906 C -12.5625 -7.515625 -12.3125 -2.53125 -11.457031 -2.171875 C -10.984375 -1.972656 -10.6875 -2.097656 -10.535156 -2.460938 C -10.382812 -2.828125 -10.773438 -3.261719 -10.910156 -3.523438 C -11.046875 -3.785156 -11.175781 -4.410156 -11.03125 -6.175781 C -10.824219 -8.675781 -9.691406 -12.652344 -8.300781 -16.414062 C -7.628906 -15.375 -6.707031 -13.902344 -5.476562 -11.847656 C -5.371094 -11.167969 -5.25 -10.480469 -5.109375 -9.789062 C -3.765625 -3.441406 -0.347656 3.421875 1.347656 4.132812 C 2.21875 4.496094 2.65625 4.433594 2.890625 3.875 C 3.640625 2.078125 -1.226562 -6.625 -5.046875 -13.023438 C -5.246094 -14.5 -5.277344 -15.847656 -5.132812 -17.46875 C -5.121094 -17.6875 -5.59375 -17.148438 -5.734375 -15.832031 C -5.773438 -15.398438 -5.769531 -14.820312 -5.734375 -14.171875 C -6.519531 -15.484375 -7.25 -16.671875 -7.839844 -17.617188 C -7.660156 -18.09375 -7.460938 -18.566406 -7.265625 -19.035156 C -6.015625 -22.019531 -3 -28.488281 -2.652344 -28.34375 C -2.300781 -28.195312 -4.457031 -21.429688 -4.917969 -20.042969 C -5.242188 -19.070312 -4.9375 -18.820312 -4.433594 -20.023438 C -3.664062 -21.855469 -1.304688 -29.007812 -1.132812 -29.714844 C -0.960938 -30.421875 -1.121094 -30.285156 -1.503906 -30.445312 Z M 1.449219 2.410156 C 0.496094 3.078125 -3.492188 -6.015625 -4.183594 -8.765625 L -4.503906 -10.109375 C -2.492188 -6.4375 1.96875 2.054688 1.449219 2.410156 Z M 1.449219 2.410156 "/></g></g></g><g fill="#000000" fill-opacity="1"><g transform="translate(117.388877, 151.643664)"><g><path d="M 0.765625 0.972656 C 0.910156 0.75 0.523438 0.0273438 0.160156 -1.25 C -0.296875 -2.765625 -1 -8.578125 -0.695312 -8.695312 C -0.394531 -8.816406 0.800781 -4.964844 1.957031 -4.210938 C 2.320312 -3.972656 3.109375 -4.003906 3.4375 -4.507812 C 4.089844 -5.507812 2.851562 -10.085938 2.761719 -10.574219 C 2.65625 -11.273438 1.769531 -11.785156 1.871094 -11.3125 C 2.0625 -10.398438 3.171875 -5.316406 2.527344 -5.191406 C 1.625 -5.015625 -0.324219 -10.894531 -0.738281 -11.160156 C -0.832031 -11.222656 -0.996094 -11.21875 -1.15625 -11.140625 C -1.324219 -11.160156 -1.476562 -11.101562 -1.570312 -10.960938 C -1.921875 -10.421875 -1.730469 -7.113281 -1.066406 -2.933594 C -0.933594 -2.101562 -1.574219 -3.78125 -2.148438 -5.464844 C -2.5 -6.621094 -2.886719 -7.933594 -3.191406 -9.058594 C -3.773438 -12.53125 -4.664062 -16.839844 -5.09375 -17.121094 C -5.25 -17.222656 -5.609375 -17.296875 -5.804688 -16.996094 C -6.570312 -15.824219 -4.234375 -9.085938 -3.652344 -7.214844 C -3.28125 -6.046875 -2.046875 -2.125 -0.402344 1.070312 C -0.269531 1.3125 0.539062 1.320312 0.765625 0.972656 Z M 0.765625 0.972656 "/></g></g></g><g fill="#000000" fill-opacity="1"><g transform="translate(121.686371, 145.174562)"><g><path d="M 1.441406 -8.640625 C 1.554688 -5.765625 1.609375 -1.050781 0.386719 -1.070312 C -0.0390625 -1.070312 -0.433594 -1.769531 -0.71875 -2.730469 C 0.15625 -5.183594 0.597656 -8.601562 -0.226562 -9.40625 C -0.628906 -9.785156 -1.292969 -9.6875 -1.628906 -9.332031 C -2.722656 -8.179688 -2.191406 -2.035156 -0.597656 -0.527344 C -0.0703125 -0.0351562 0.863281 0.078125 1.328125 -0.417969 C 1.992188 -1.117188 2.257812 -2.675781 2.226562 -6.785156 C 2.21875 -8.179688 1.410156 -9.148438 1.441406 -8.640625 Z M -0.917969 -8.25 C -0.371094 -8.273438 -0.738281 -5.972656 -1.117188 -4.367188 C -1.449219 -6.246094 -1.453125 -8.21875 -0.917969 -8.25 Z M -0.917969 -8.25 "/></g></g></g><g fill="#000000" fill-opacity="1"><g transform="translate(124.87692, 141.543962)"><g/></g></g><g fill="#000000" fill-opacity="1"><g transform="translate(127.984286, 138.631167)"><g><path d="M 3.796875 -10.421875 C 3.496094 -9.871094 2.40625 -8.671875 1.753906 -8.214844 C 1.585938 -8.09375 1.414062 -8.011719 1.253906 -7.941406 C 0.984375 -8.402344 0.601562 -8.730469 0.195312 -8.710938 C 0.289062 -8.96875 0.382812 -9.15625 0.535156 -9.265625 C 0.824219 -9.480469 0.109375 -9.847656 -0.332031 -9.523438 C -1.292969 -8.816406 -1.328125 -0.0820312 -0.839844 0.617188 C -0.472656 1.144531 0.160156 1.078125 0.398438 0.925781 C 1.460938 0.265625 1.738281 -5.527344 1.53125 -7.179688 C 1.703125 -7.261719 1.878906 -7.34375 2.046875 -7.46875 C 2.730469 -7.945312 3.433594 -8.742188 3.820312 -9.589844 C 4.195312 -10.453125 4 -10.78125 3.796875 -10.421875 Z M -0.0195312 -0.667969 C -0.46875 -0.734375 -0.164062 -5.84375 -0.046875 -7.3125 C 0.105469 -7.234375 0.269531 -7.171875 0.464844 -7.125 L 0.535156 -7.035156 C 1.011719 -6.355469 0.535156 -0.582031 -0.0195312 -0.667969 Z M -0.0195312 -0.667969 "/></g></g></g><g fill="#000000" fill-opacity="1"><g transform="translate(132.027328, 135.648097)"><g><path d="M 0.734375 0.515625 C 1.417969 0.0742188 2.328125 -3.265625 2.550781 -4.246094 C 2.886719 -5.707031 2.609375 -6.183594 2.410156 -5.585938 C 1.324219 -2.207031 0.78125 -0.84375 0.480469 -0.867188 C 0.0898438 -0.902344 0.386719 -6.363281 0.707031 -7.8125 C 1.476562 -10.113281 3.570312 -18.511719 2.90625 -19.546875 C 2.730469 -19.816406 2.355469 -19.972656 1.988281 -19.738281 C 0.765625 -18.945312 -1.3125 -1.363281 -0.332031 0.148438 C -0.105469 0.496094 0.382812 0.738281 0.734375 0.515625 Z M 0.734375 0.515625 "/></g></g></g><g fill="#000000" fill-opacity="1"><g transform="translate(135.586489, 133.315978)"><g><path d="M 9.710938 -19.777344 C 8.785156 -17.714844 7.988281 -15.683594 7.226562 -13.988281 C 6.164062 -11.691406 5.257812 -9.738281 4.464844 -8.117188 C 4.164062 -8.527344 3.472656 -9.007812 2.730469 -8.722656 C 1.390625 -8.203125 -1.0625 -2.488281 -0.464844 -0.9375 C -0.21875 -0.300781 0.441406 -0.0078125 0.847656 -0.164062 C 1.765625 -0.519531 3.324219 -3.617188 7.257812 -11.808594 C 4.644531 -3.195312 3.421875 2.246094 3.710938 2.984375 C 3.933594 3.570312 4.933594 3.367188 4.785156 3.199219 C 4.167969 2.445312 5.777344 -3.472656 7.332031 -9.042969 C 8.6875 -13.925781 10.171875 -19.003906 10.613281 -19.171875 C 11.089844 -19.355469 9.949219 -20.316406 9.710938 -19.777344 Z M 0.5 -1.226562 C 0.0429688 -1.515625 1.800781 -7.246094 3.070312 -7.738281 C 3.441406 -7.882812 3.742188 -7.632812 4.035156 -7.238281 C 1.871094 -2.8125 0.796875 -1.039062 0.5 -1.226562 Z M 0.5 -1.226562 "/></g></g></g><g fill="#000000" fill-opacity="1"><g transform="translate(144.095175, 130.175642)"><g/></g></g><g fill="#000000" fill-opacity="1"><g transform="translate(148.189716, 129.187434)"><g><path d="M 6.609375 -4.949219 C 6.167969 -4.832031 5.691406 -4.652344 5.214844 -4.4375 C 5.722656 -5.699219 6.019531 -6.753906 5.96875 -7.265625 C 5.929688 -7.695312 5.414062 -8.292969 4.964844 -8.25 C 4.210938 -8.175781 2.226562 -5.289062 -0.644531 -2.160156 C -1.128906 -1.640625 -0.304688 -1.984375 0.0507812 -2.226562 C 0.746094 -2.714844 1.183594 -3.097656 1.59375 -3.574219 C 3.0625 -5.3125 4.484375 -6.894531 4.726562 -6.746094 C 4.949219 -6.613281 4.417969 -5.023438 3.84375 -3.675781 C 1.300781 -2.101562 -1.050781 0.347656 -0.972656 1.140625 C -0.914062 1.761719 -0.226562 2.1875 0.320312 2.136719 C 1.429688 2.027344 2.9375 0.304688 4.117188 -2.03125 C 4.390625 -2.570312 4.640625 -3.105469 4.859375 -3.601562 C 5.253906 -3.867188 5.632812 -4.078125 5.9375 -4.238281 C 6.9375 -4.734375 7.316406 -5.132812 6.609375 -4.949219 Z M 3.164062 -2.261719 C 2.625 -1.355469 0.710938 1.679688 0.199219 1.0625 C -0.144531 0.660156 1.5 -1.019531 3.261719 -2.441406 Z M 3.164062 -2.261719 "/></g></g></g><g fill="#000000" fill-opacity="1"><g transform="translate(154.220653, 128.602423)"><g><path d="M 0.4375 1.054688 C 1.496094 1.089844 3.84375 -0.648438 4.960938 -1.824219 C 5.117188 -1.988281 5.394531 -2.261719 5.105469 -2.140625 C 4.949219 -2.070312 4.546875 -1.835938 3.8125 -1.386719 C 2.882812 -0.8125 1.304688 0.00390625 0.851562 -0.0078125 C 0.738281 -0.0117188 0.683594 -0.0898438 0.691406 -0.261719 C 0.710938 -0.847656 1.667969 -2.328125 2.882812 -3.613281 C 4.253906 -5.0625 5.71875 -6.398438 6.089844 -6.121094 C 6.347656 -5.941406 5.730469 -5.089844 5.441406 -4.910156 C 5.171875 -4.75 5.390625 -4.441406 5.9375 -4.421875 C 6.503906 -4.402344 7.292969 -5.378906 7.316406 -6.117188 C 7.339844 -6.761719 6.804688 -7.136719 6.140625 -7.121094 C 5.023438 -7.082031 3.367188 -5.699219 1.914062 -4.101562 C 0.597656 -2.667969 -0.347656 -0.9375 -0.378906 -0.03125 C -0.390625 0.347656 -0.0351562 1.039062 0.4375 1.054688 Z M 0.4375 1.054688 "/></g></g></g><g fill="#000000" fill-opacity="1"><g transform="translate(159.174198, 128.615788)"><g><path d="M -0.601562 1.082031 C -0.339844 1.128906 0.179688 0.496094 1.214844 -0.335938 C 2.4375 -1.34375 7.523438 -4.238281 7.75 -4.003906 C 7.976562 -3.773438 4.890625 -1.183594 4.640625 0.175781 C 4.5625 0.601562 4.894531 1.316406 5.488281 1.425781 C 6.660156 1.640625 10.402344 -1.269531 10.820312 -1.539062 C 11.425781 -1.910156 11.554688 -2.925781 11.15625 -2.652344 C 10.386719 -2.121094 6.128906 0.871094 5.765625 0.324219 C 5.253906 -0.441406 9.921875 -4.511719 10.007812 -4.996094 C 10.027344 -5.109375 9.960938 -5.253906 9.828125 -5.375 C 9.78125 -5.539062 9.667969 -5.65625 9.5 -5.683594 C 8.867188 -5.800781 5.890625 -4.34375 2.292969 -2.121094 C 1.574219 -1.671875 2.878906 -2.914062 4.210938 -4.09375 C 5.140625 -4.867188 6.199219 -5.730469 7.121094 -6.449219 C 10.097656 -8.324219 13.726562 -10.816406 13.816406 -11.316406 C 13.851562 -11.503906 13.78125 -11.863281 13.429688 -11.925781 C 12.050781 -12.179688 6.742188 -7.421875 5.242188 -6.15625 C 4.308594 -5.367188 1.167969 -2.710938 -1.140625 0.0429688 C -1.316406 0.257812 -1.011719 1.007812 -0.601562 1.082031 Z M -0.601562 1.082031 "/></g></g></g><g fill="#000000" fill-opacity="1"><g transform="translate(166.794194, 130.069199)"><g><path d="M 10.71875 -2.847656 C 10.097656 -2.78125 8.488281 -2.988281 7.742188 -3.261719 C 7.546875 -3.328125 7.378906 -3.425781 7.230469 -3.515625 C 7.453125 -4 7.503906 -4.5 7.253906 -4.824219 C 7.519531 -4.894531 7.726562 -4.921875 7.90625 -4.863281 C 8.246094 -4.746094 8.140625 -5.542969 7.621094 -5.71875 C 6.492188 -6.101562 -0.691406 -1.132812 -0.984375 -0.335938 C -1.210938 0.269531 -0.792969 0.75 -0.53125 0.859375 C 0.621094 1.351562 5.527344 -1.738281 6.765625 -2.855469 C 6.929688 -2.757812 7.097656 -2.660156 7.296875 -2.59375 C 8.078125 -2.308594 9.136719 -2.1875 10.050781 -2.355469 C 10.972656 -2.542969 11.132812 -2.886719 10.71875 -2.847656 Z M 0.535156 -0.398438 C 0.332031 -0.804688 4.699219 -3.476562 5.972656 -4.222656 C 5.996094 -4.054688 6.035156 -3.882812 6.113281 -3.695312 L 6.074219 -3.585938 C 5.789062 -2.804688 0.78125 0.105469 0.535156 -0.398438 Z M 0.535156 -0.398438 "/></g></g></g><g fill="#000000" fill-opacity="1"><g transform="translate(171.535963, 131.650627)"><g><path d="M 10.976562 -1.582031 C 10.351562 -1.589844 8.777344 -1.980469 8.070312 -2.339844 C 7.878906 -2.429688 7.726562 -2.542969 7.589844 -2.652344 C 7.867188 -3.105469 7.976562 -3.597656 7.765625 -3.949219 C 8.035156 -3.988281 8.246094 -3.992188 8.417969 -3.910156 C 8.742188 -3.757812 8.726562 -4.558594 8.230469 -4.796875 C 7.15625 -5.308594 -0.554688 -1.207031 -0.9375 -0.445312 C -1.234375 0.125 -0.875 0.652344 -0.628906 0.789062 C 0.457031 1.414062 5.691406 -1.082031 7.050781 -2.050781 C 7.203125 -1.933594 7.359375 -1.816406 7.546875 -1.726562 C 8.289062 -1.355469 9.328125 -1.113281 10.257812 -1.171875 C 11.195312 -1.25 11.390625 -1.574219 10.976562 -1.582031 Z M 0.578125 -0.332031 C 0.425781 -0.761719 5.070312 -2.90625 6.421875 -3.5 C 6.425781 -3.332031 6.445312 -3.152344 6.5 -2.960938 L 6.449219 -2.859375 C 6.074219 -2.113281 0.765625 0.195312 0.578125 -0.332031 Z M 0.578125 -0.332031 "/></g></g></g><g fill="#000000" fill-opacity="1"><g transform="translate(176.077441, 133.797899)"><g><path d="M -0.105469 0.890625 C 0.605469 1.285156 3.980469 0.507812 4.949219 0.238281 C 6.394531 -0.15625 6.683594 -0.625 6.0625 -0.519531 C 2.570312 0.125 1.113281 0.289062 0.992188 0.015625 C 0.839844 -0.347656 5.789062 -2.667969 7.21875 -3.074219 C 9.609375 -3.484375 18 -5.609375 18.597656 -6.683594 C 18.75 -6.96875 18.710938 -7.371094 18.332031 -7.585938 C 17.054688 -8.285156 0.578125 -1.800781 -0.285156 -0.222656 C -0.488281 0.140625 -0.46875 0.6875 -0.105469 0.890625 Z M -0.105469 0.890625 "/></g></g></g><g mask="url(#c939ea6a4c)"><g transform="matrix(1, 0, 0, 1, 252, 174)"><g clip-path="url(#34984c50f1)"><g fill="#d26037" fill-opacity="1"><g transform="translate(2.594738, 14.470652)"><g><path d="M 2.34375 -0.40625 L 2.339844 -0.414062 L 2.351562 -0.40625 L 2.351562 -0.441406 C 2.429688 -0.699219 4.273438 -6.703125 4.199219 -7.066406 C 4.183594 -7.144531 4.167969 -7.167969 4.042969 -7.246094 C 3.835938 -7.359375 3.683594 -7.347656 3.683594 -7.347656 L 2.257812 -1.316406 L 1.421875 -6.269531 L 0.03125 -6.601562 L 1.402344 -0.679688 L 2.3125 -0.417969 Z M 2.34375 -0.40625 "/></g></g></g><g fill="#d26037" fill-opacity="1"><g transform="translate(7.215607, 13.528046)"><g><path d="M 0.75 -0.0078125 L 0.757812 -0.015625 L 0.769531 -0.0117188 L 0.769531 -0.0195312 C 0.832031 -0.0703125 1.035156 -0.238281 1.261719 -0.488281 C 1.5 -0.792969 1.867188 -1.429688 1.867188 -1.429688 L 1.78125 -1.484375 C 1.78125 -1.484375 1.238281 -0.820312 1.046875 -0.671875 C 0.992188 -0.632812 0.941406 -0.605469 0.890625 -0.585938 C 1.101562 -1.539062 1.472656 -3.367188 1.414062 -3.640625 C 1.402344 -3.710938 1.371094 -3.722656 1.253906 -3.808594 C 1.046875 -3.914062 0.398438 -4.167969 0.398438 -4.167969 L -0.00390625 -0.46875 C -0.00390625 -0.46875 0.167969 -0.308594 0.332031 -0.222656 C 0.597656 -0.0859375 0.605469 -0.0976562 0.75 -0.0234375 Z M 0.523438 -5.855469 C 0.523438 -5.855469 0.433594 -4.9375 0.457031 -4.832031 C 0.480469 -4.71875 1.351562 -4.308594 1.441406 -4.328125 C 1.503906 -4.339844 1.71875 -5.210938 1.648438 -5.289062 C 1.5625 -5.390625 1.390625 -5.519531 1.160156 -5.609375 C 0.917969 -5.71875 0.664062 -5.886719 0.523438 -5.855469 Z M 0.523438 -5.855469 "/></g></g></g><g fill="#d26037" fill-opacity="1"><g transform="translate(9.49077, 13.063937)"><g><path d="M 2.164062 -0.910156 C 2.164062 -0.910156 2.335938 -0.753906 2.527344 -0.671875 C 2.777344 -0.53125 2.78125 -0.539062 2.929688 -0.460938 L 2.929688 -0.449219 L 2.9375 -0.453125 L 2.9375 -0.460938 C 2.984375 -0.5 3.1875 -0.667969 3.421875 -0.925781 C 3.6875 -1.238281 4.027344 -1.867188 4.027344 -1.867188 L 3.96875 -1.929688 C 3.96875 -1.929688 3.414062 -1.265625 3.21875 -1.117188 L 3.0625 -1.019531 C 3.261719 -1.96875 3.632812 -3.808594 3.578125 -4.082031 C 3.5625 -4.152344 3.558594 -4.171875 3.449219 -4.257812 C 3.226562 -4.359375 2.585938 -4.613281 2.585938 -4.613281 L 2.574219 -4.492188 C 2.382812 -4.351562 1.617188 -2.738281 1.226562 -1.867188 C 1.382812 -2.671875 1.523438 -3.480469 1.484375 -3.65625 C 1.472656 -3.726562 1.460938 -3.742188 1.332031 -3.828125 C 1.152344 -3.9375 0.488281 -4.1875 0.488281 -4.1875 L 0.0859375 -0.484375 C 0.0859375 -0.484375 0.261719 -0.328125 0.4375 -0.246094 C 0.707031 -0.0976562 0.703125 -0.117188 0.847656 -0.0273438 C 0.847656 -0.0273438 0.960938 -0.515625 1.089844 -1.148438 C 1.375 -1.730469 2.066406 -3.148438 2.496094 -3.84375 Z M 2.164062 -0.910156 "/></g></g></g><g fill="#d26037" fill-opacity="1"><g transform="translate(13.81181, 12.182492)"><g><path d="M 0.0585938 -0.480469 C 0.0585938 -0.480469 0.238281 -0.324219 0.382812 -0.234375 C 0.660156 -0.0898438 0.65625 -0.105469 0.824219 -0.0195312 C 0.917969 -0.0390625 1.601562 -0.933594 2.242188 -1.925781 L 2.195312 -1.441406 C 2.167969 -1.222656 2.070312 -0.789062 1.988281 -0.25 C 1.65625 0.0585938 1.355469 0.386719 1.125 0.6875 C 0.425781 1.675781 0.566406 2.28125 0.625 2.5625 C 0.679688 2.847656 0.726562 3.058594 0.804688 3.132812 C 0.914062 3.175781 1.105469 3.164062 1.25 3.160156 C 1.398438 3.160156 1.59375 3.183594 1.699219 3.117188 C 1.804688 3.03125 2.367188 1.878906 2.625 0.898438 C 2.746094 0.359375 2.886719 -0.339844 3 -0.878906 C 3.148438 -1.007812 4.035156 -1.648438 4.035156 -1.648438 C 4.09375 -1.726562 4.070312 -1.878906 4.070312 -1.878906 C 3.761719 -1.816406 3.300781 -1.390625 3.070312 -1.203125 C 3.101562 -1.359375 3.121094 -1.5 3.132812 -1.613281 C 3.347656 -2.585938 3.585938 -3.855469 3.539062 -4.074219 C 3.527344 -4.144531 3.503906 -4.160156 3.386719 -4.246094 C 3.179688 -4.351562 2.53125 -4.605469 2.53125 -4.605469 L 2.324219 -2.660156 C 1.859375 -1.777344 1.191406 -0.90625 0.933594 -0.519531 C 1.128906 -1.441406 1.515625 -3.367188 1.460938 -3.652344 C 1.445312 -3.722656 1.425781 -3.734375 1.3125 -3.824219 C 1.101562 -3.925781 0.460938 -4.179688 0.460938 -4.179688 Z M 1.035156 2.78125 C 1.019531 2.785156 0.992188 2.664062 0.988281 2.636719 C 0.984375 2.609375 0.816406 1.789062 1.25 1.125 C 1.476562 0.800781 1.628906 0.511719 1.894531 0.183594 C 1.671875 1.347656 1.355469 2.71875 1.035156 2.78125 Z M 1.035156 2.78125 "/></g></g></g><g fill="#d26037" fill-opacity="1"><g transform="translate(18.176951, 11.292051)"><g><path d="M 0.777344 -0.0117188 C 0.777344 -0.0117188 1.023438 -0.199219 1.277344 -0.492188 C 1.527344 -0.796875 1.886719 -1.429688 1.886719 -1.429688 L 1.800781 -1.488281 C 1.800781 -1.488281 1.273438 -0.828125 1.066406 -0.675781 C 0.992188 -0.625 0.933594 -0.59375 0.875 -0.566406 C 1.121094 -1.984375 1.738281 -5.65625 1.683594 -5.9375 C 1.664062 -6.023438 1.640625 -6.046875 1.515625 -6.125 C 1.328125 -6.242188 0.664062 -6.472656 0.664062 -6.472656 L -0.00390625 -0.46875 C -0.00390625 -0.46875 0.175781 -0.3125 0.347656 -0.226562 C 0.609375 -0.078125 0.632812 -0.101562 0.777344 -0.0117188 Z M 0.777344 -0.0117188 "/></g></g></g><g fill="#d26037" fill-opacity="1"><g transform="translate(20.425663, 10.833339)"><g><path d="M 1.796875 -4.390625 C 1.796875 -4.390625 1.828125 -4.09375 1.8125 -3.8125 C 1.605469 -3.972656 1.121094 -4.316406 1.042969 -4.300781 C 0.929688 -4.277344 -0.214844 -3.703125 0.015625 -2.585938 C 0.046875 -2.425781 1.429688 -1.375 1.429688 -1.375 C 1.429688 -1.375 1.238281 -1.042969 0.753906 -0.945312 C 0.257812 -0.84375 -0.3125 -1.121094 -0.308594 -1.105469 C -0.332031 -1.082031 0.0625 -0.222656 0.0625 -0.222656 C 0.0625 -0.222656 0.5625 0.00390625 1.117188 -0.109375 C 1.65625 -0.21875 2.1875 -0.851562 2.152344 -1.027344 C 2.132812 -1.125 0.710938 -2.238281 0.683594 -2.363281 C 0.65625 -2.496094 0.738281 -2.871094 1.066406 -3.183594 C 1.332031 -3.421875 1.644531 -3.605469 1.800781 -3.683594 L 1.777344 -3.53125 C 1.738281 -3.359375 1.628906 -3.050781 1.636719 -3.015625 C 1.640625 -3 1.730469 -2.988281 1.875 -3.019531 C 2.050781 -3.054688 2.378906 -4.140625 2.355469 -4.253906 C 2.335938 -4.363281 1.917969 -4.414062 1.796875 -4.390625 Z M 1.796875 -4.390625 "/></g></g></g></g></g></g></svg>